<svg width="500" height="500" viewBox="0 0 500 500" fill="none" xmlns="http://www.w3.org/2000/svg">
<mask id="mask0_15_138" style="mask-type:alpha" maskUnits="userSpaceOnUse" x="0" y="0" width="500" height="500">
<rect width="500" height="500" rx="40" fill="#E5097F"/>
</mask>
<g mask="url(#mask0_15_138)">
<rect width="500" height="500" rx="40" fill="#E5097F"/>
<mask id="path-3-outside-1_15_138" maskUnits="userSpaceOnUse" x="11" y="159" width="1215" height="187" fill="black">
<rect fill="white" x="11" y="159" width="1215" height="187"/>
<path d="M1081.01 305.173H1147.82C1148.94 305.173 1149.91 304.416 1150.18 303.336C1150.56 301.806 1149.4 300.323 1147.82 300.323H1144.66C1141.5 300.323 1139.17 297.366 1139.9 294.29L1140.45 292.009C1141.47 287.769 1138.25 283.694 1133.89 283.694H1102.84C1097.82 283.694 1093.46 287.133 1092.3 292.009L1091.6 294.916C1090.84 298.087 1088 300.323 1084.74 300.323H1081.01C1079.86 300.323 1078.87 301.122 1078.63 302.24C1078.31 303.75 1079.46 305.173 1081.01 305.173Z"/>
<path d="M1085.42 330.81H1135.03C1139.99 330.81 1144.3 327.415 1145.47 322.596C1147.1 315.837 1141.98 309.331 1135.03 309.331H1085.42C1080.46 309.331 1076.14 312.725 1074.98 317.545C1073.34 324.303 1078.46 330.81 1085.42 330.81Z"/>
<path d="M1072.88 340.51H1139.08C1140.34 340.51 1141.43 339.641 1141.7 338.416C1142.08 336.737 1140.81 335.14 1139.08 335.14H1072.88C1071.62 335.14 1070.53 336.01 1070.26 337.234C1069.88 338.913 1071.15 340.51 1072.88 340.51Z"/>
<path d="M1143.68 257.885H1105.52C1102.58 257.885 1100.02 259.884 1099.31 262.735C1097.28 271.214 1103.71 279.364 1112.43 279.364H1126.38C1136.41 279.364 1145.13 272.487 1147.47 262.735C1148.08 260.271 1146.22 257.885 1143.68 257.885Z"/>
<path d="M1141.35 232.248H1115.02C1110.08 232.248 1105.79 235.647 1104.65 240.457C1103.07 247.145 1108.15 253.554 1115.02 253.554H1141.35C1146.26 253.554 1150.54 250.197 1151.7 245.425C1153.34 238.717 1148.26 232.248 1141.35 232.248Z"/>
<path d="M1153.88 206.439H1119.96C1115.77 206.439 1112.11 209.295 1111.09 213.367C1109.32 220.791 1114.95 227.918 1122.58 227.918H1141C1149.77 227.918 1157.39 221.898 1159.42 213.367C1160.22 209.815 1157.52 206.439 1153.88 206.439Z"/>
<path d="M1064.6 213.367H1097.82C1099.41 213.367 1100.79 212.285 1101.18 210.743C1101.73 208.557 1100.07 206.439 1097.82 206.439H1064.6C1063.01 206.439 1061.63 207.521 1061.24 209.063C1060.69 211.249 1062.35 213.367 1064.6 213.367Z"/>
<path d="M1204.49 180.629H1076.58C1071.62 180.629 1067.31 184.024 1066.14 188.843C1064.51 195.601 1069.63 202.108 1076.58 202.108H1204.49C1209.45 202.108 1213.76 198.713 1214.93 193.894C1216.57 187.136 1211.44 180.629 1204.49 180.629Z"/>
<path d="M1092.21 164H1077.05C1074.16 164 1071.65 165.988 1070.98 168.803C1070.06 172.718 1073.03 176.472 1077.05 176.472H1214.24C1217.14 176.472 1219.65 174.483 1220.31 171.669C1221.24 167.753 1218.27 164 1214.24 164H1199.78H1181.76H1171.2H1123.04H1112.48H1092.21Z"/>
<path d="M1174.31 213.367H1207.57C1209.19 213.367 1210.6 212.244 1210.95 210.663C1211.44 208.498 1209.79 206.439 1207.57 206.439H1174.31C1172.69 206.439 1171.29 207.562 1170.93 209.143C1170.45 211.308 1172.09 213.367 1174.31 213.367Z"/>
<path d="M154.044 305.173H220.757C221.87 305.173 222.839 304.416 223.109 303.336C223.492 301.806 222.334 300.323 220.757 300.323H217.682C214.563 300.323 212.263 297.407 212.99 294.373L213.556 292.009C214.572 287.769 211.358 283.694 206.998 283.694H175.77C170.756 283.694 166.396 287.133 165.228 292.009L164.534 294.906C163.773 298.083 160.932 300.323 157.665 300.323H154.044C152.931 300.323 151.961 301.081 151.691 302.16C151.308 303.691 152.466 305.173 154.044 305.173Z"/>
<path d="M158.349 330.81H208.136C213.095 330.81 217.409 327.415 218.575 322.596C220.21 315.837 215.09 309.331 208.136 309.331H158.349C153.391 309.331 149.077 312.725 147.911 317.545C146.276 324.303 151.396 330.81 158.349 330.81Z"/>
<path d="M145.809 340.51H212.082C213.307 340.51 214.376 339.682 214.682 338.496C215.121 336.797 213.838 335.14 212.082 335.14H145.809C144.554 335.14 143.466 336.01 143.19 337.234C142.81 338.913 144.087 340.51 145.809 340.51Z"/>
<path d="M216.651 257.885H178.455C175.517 257.885 172.956 259.884 172.243 262.735C170.212 271.214 176.64 279.364 185.359 279.364H199.488C209.516 279.364 218.235 272.487 220.572 262.735C221.106 260.239 219.204 257.885 216.651 257.885Z"/>
<path d="M113.082 279.364H148.322C151.515 279.364 154.543 277.943 156.583 275.486C162.396 268.488 157.419 257.885 148.322 257.885H113.082C105.632 257.885 100.445 265.285 102.986 272.288C104.528 276.535 108.563 279.364 113.082 279.364Z"/>
<path d="M122.435 305.173H126.843C130.036 305.173 133.064 303.752 135.104 301.296C140.917 294.298 135.94 283.694 126.843 283.694H122.435C114.986 283.694 109.799 291.094 112.34 298.097C113.882 302.345 117.917 305.173 122.435 305.173Z"/>
<path d="M58.9092 279.364H73.0381C83.066 279.364 91.7853 272.487 94.1217 262.735C94.6566 260.239 92.7537 257.885 90.2008 257.885H52.0056C49.0674 257.885 46.5063 259.884 45.7937 262.735C43.7621 271.214 50.1898 279.364 58.9092 279.364Z"/>
<path d="M86.5398 294.373L87.1064 292.009C88.1221 287.769 84.9083 283.694 80.5486 283.694H49.3201C44.3062 283.694 39.9465 287.133 38.7783 292.009L38.0843 294.906C37.3231 298.083 34.4823 300.323 31.2152 300.323H27.5937C26.4809 300.323 25.5109 301.081 25.241 302.16C24.8584 303.691 26.016 305.173 27.5937 305.173H94.3069C95.4197 305.173 96.3897 304.416 96.6596 303.336C97.0422 301.806 95.8846 300.323 94.3069 300.323H91.2325C88.1127 300.323 85.8129 297.407 86.5398 294.373Z"/>
<path d="M31.8995 330.81H81.6866C86.6451 330.81 90.959 327.415 92.125 322.596C93.76 315.837 88.6397 309.331 81.6866 309.331H31.8995C26.941 309.331 22.6271 312.725 21.4611 317.545C19.8261 324.303 24.9464 330.81 31.8995 330.81Z"/>
<path d="M19.3588 340.51H85.6327C86.8571 340.51 87.9264 339.682 88.2324 338.496C88.6709 336.797 87.3878 335.14 85.6327 335.14H19.3588C18.1038 335.14 17.0162 336.01 16.7398 337.234C16.3606 338.913 17.6373 340.51 19.3588 340.51Z"/>
<path d="M214.283 232.248H61.609C56.6979 232.248 52.4232 235.606 51.2595 240.377C49.6232 247.085 54.7038 253.554 61.609 253.554H214.283C219.194 253.554 223.469 250.197 224.633 245.425C226.269 238.717 221.188 232.248 214.283 232.248Z"/>
<path d="M123.317 206.439H66.4067C62.2546 206.439 58.6572 209.317 57.7458 213.367C55.9782 220.791 61.6073 227.918 69.2385 227.918H123.317C130.767 227.918 135.953 220.518 133.412 213.515C131.871 209.267 127.835 206.439 123.317 206.439Z"/>
<path d="M113.963 180.629H63.4254C58.4669 180.629 54.153 184.024 52.987 188.843C51.3519 195.601 56.4722 202.108 63.4254 202.108H113.963C121.413 202.108 126.6 194.708 124.058 187.705C122.517 183.457 118.481 180.629 113.963 180.629Z"/>
<path d="M69.5246 164H63.8933C61.0013 164 58.4888 165.988 57.8243 168.803C56.8998 172.718 59.8701 176.472 63.8933 176.472H111.049C115.371 176.472 118.382 172.183 116.915 168.118C116.022 165.647 113.677 164 111.049 164H69.5246Z"/>
<path d="M226.941 206.439H165.474C162.299 206.439 159.286 207.844 157.245 210.277C151.384 217.265 156.353 227.918 165.474 227.918H213.929C222.698 227.918 230.319 221.898 232.35 213.367C233.23 209.848 230.568 206.439 226.941 206.439Z"/>
<path d="M237.171 180.629H186.984C183.791 180.629 180.763 182.05 178.723 184.506C172.91 191.504 177.887 202.108 186.984 202.108H237.171C242.16 202.108 246.492 198.672 247.628 193.814C249.204 187.077 244.09 180.629 237.171 180.629Z"/>
<path d="M244.303 164H198.895C197.044 164 195.289 164.822 194.105 166.244C190.72 170.305 193.608 176.472 198.895 176.472H246.882C249.744 176.472 252.238 174.524 252.932 171.748C253.916 167.813 250.939 164 246.882 164H244.303Z"/>
<path d="M235.11 305.173H301.929C303.073 305.173 304.061 304.375 304.301 303.256C304.624 301.747 303.473 300.323 301.929 300.323H298.856C295.681 300.323 293.341 297.356 294.081 294.269L294.623 292.009C295.638 287.769 292.425 283.694 288.065 283.694H257.01C251.996 283.694 247.636 287.133 246.468 292.009L245.794 294.821C245.021 298.048 242.136 300.323 238.818 300.323H235.11C233.997 300.323 233.027 301.081 232.757 302.16C232.375 303.691 233.532 305.173 235.11 305.173Z"/>
<path d="M239.482 330.81H289.203C294.161 330.81 298.475 327.415 299.641 322.596C301.276 315.837 296.156 309.331 289.203 309.331H239.482C234.493 309.331 230.161 312.766 229.025 317.624C227.449 324.362 232.563 330.81 239.482 330.81Z"/>
<path d="M226.982 340.51H293.256C294.511 340.51 295.598 339.641 295.875 338.416C296.254 336.737 294.977 335.14 293.256 335.14H226.982C225.758 335.14 224.688 335.969 224.382 337.154C223.944 338.854 225.227 340.51 226.982 340.51Z"/>
<path d="M297.851 257.885H259.483C256.589 257.885 254.089 259.906 253.483 262.735C251.452 271.214 257.879 279.364 266.599 279.364H280.554C290.582 279.364 299.302 272.487 301.638 262.735C302.254 260.271 300.391 257.885 297.851 257.885Z"/>
<path d="M295.523 232.248H269.125C264.214 232.248 259.939 235.606 258.776 240.377C257.139 247.085 262.22 253.554 269.125 253.554H295.523C300.434 253.554 304.709 250.197 305.872 245.425C307.509 238.717 302.428 232.248 295.523 232.248Z"/>
<path d="M308.047 206.439H274.136C269.939 206.439 266.28 209.295 265.262 213.367C263.494 220.791 269.124 227.918 276.755 227.918H294.954C303.769 227.918 311.452 221.919 313.59 213.367C314.389 209.815 311.688 206.439 308.047 206.439Z"/>
<path d="M318.304 180.629H271.115C266.156 180.629 261.842 184.024 260.676 188.843C259.041 195.601 264.162 202.108 271.115 202.108H318.304C323.262 202.108 327.576 198.713 328.742 193.894C330.377 187.136 325.257 180.629 318.304 180.629Z"/>
<path d="M277.214 164H271.583C268.691 164 266.178 165.988 265.514 168.803C264.589 172.718 267.56 176.472 271.583 176.472H328.056C330.948 176.472 333.46 174.483 334.125 171.669C335.049 167.753 332.079 164 328.056 164H325.369H277.214Z"/>
<path d="M374.736 340.51H377.508H383.224H417.065C417.696 340.51 418.306 340.288 418.789 339.883C420.711 338.273 419.573 335.14 417.065 335.14H308.981C307.726 335.14 306.638 336.01 306.362 337.234C305.983 338.913 307.259 340.51 308.981 340.51H374.736Z"/>
<path d="M450.515 309.331H321.522C316.563 309.331 312.249 312.725 311.083 317.545C309.448 324.303 314.568 330.81 321.522 330.81H415.199C424.536 330.81 433.578 327.544 440.76 321.577L451.666 312.517C451.988 312.249 452.208 311.876 452.285 311.464C452.493 310.355 451.642 309.331 450.515 309.331Z"/>
<path d="M320.837 300.323H317.216C316.103 300.323 315.133 301.081 314.863 302.16C314.48 303.691 315.638 305.173 317.216 305.173H444.62C449.796 305.173 454.236 301.482 455.18 296.392C456.404 289.789 451.336 283.694 444.62 283.694H417.789C412.145 283.694 407.237 287.561 405.916 293.048C405.05 297.032 400.892 300.323 396.908 300.323H382.185C378.385 300.323 375.588 296.745 376.469 293.048C377.616 288.28 374.003 283.694 369.099 283.694H338.942C333.928 283.694 329.569 287.133 328.4 292.009L327.706 294.905C326.945 298.083 324.104 300.323 320.837 300.323Z"/>
<path d="M371.309 257.885H341.628C338.689 257.885 336.128 259.884 335.416 262.735C333.384 271.214 339.812 279.364 348.531 279.364H371.309C376.267 279.364 380.581 275.969 381.747 271.15C383.382 264.391 378.262 257.885 371.309 257.885Z"/>
<path d="M377.562 232.248H351.231C346.32 232.248 342.045 235.606 340.881 240.377C339.245 247.085 344.326 253.554 351.231 253.554H377.562C382.504 253.554 386.797 250.156 387.931 245.346C389.508 238.658 384.434 232.248 377.562 232.248Z"/>
<path d="M383.607 206.439H356.242C352.045 206.439 348.386 209.295 347.368 213.367C345.6 220.791 351.229 227.918 358.861 227.918H383.607C388.566 227.918 392.88 224.523 394.046 219.704C395.681 212.945 390.56 206.439 383.607 206.439Z"/>
<path d="M464.261 180.629H353.114C348.125 180.629 343.793 184.065 342.657 188.923C341.081 195.661 346.194 202.108 353.114 202.108H469.414C473.443 202.108 476.972 199.405 478.022 195.515C478.755 192.797 478.162 189.892 476.42 187.679L474.962 185.825C472.38 182.544 468.436 180.629 464.261 180.629Z"/>
<path d="M359.147 164H353.515C350.623 164 348.111 165.988 347.446 168.803C346.522 172.718 349.492 176.472 353.515 176.472H454.518C459.732 176.472 462.644 170.453 459.407 166.365C458.225 164.871 456.424 164 454.518 164H436.922H426.356H418.041H407.475H359.147Z"/>
<path d="M438.437 227.918H454.876C463.645 227.918 471.267 221.898 473.298 213.367C474.257 209.881 471.633 206.439 468.017 206.439H429.91C427.732 206.439 426.063 209.36 425.49 211.462C423.46 219.845 429.811 227.918 438.437 227.918Z"/>
<path d="M428.9 253.554H455.231C460.142 253.554 464.417 250.197 465.58 245.425C467.217 238.717 462.136 232.248 455.231 232.248H428.9C423.958 232.248 419.665 235.647 418.531 240.457C416.954 247.145 422.028 253.554 428.9 253.554Z"/>
<path d="M422.855 279.364H441.309C451.119 279.364 459.538 272.377 461.346 262.735C461.962 260.271 460.098 257.885 457.559 257.885H422.855C417.896 257.885 413.582 261.279 412.416 266.099C410.781 272.857 415.901 279.364 422.855 279.364Z"/>
<path d="M768.983 340.51H778.51H823.11C823.728 340.51 824.328 340.296 824.807 339.906C826.764 338.309 825.635 335.14 823.11 335.14H746.465C744.285 335.14 743.014 337.601 744.276 339.379C744.779 340.088 745.595 340.51 746.465 340.51H768.983Z"/>
<path d="M725.144 312.468L730.847 320.511C735.428 326.971 742.856 330.81 750.775 330.81H821.54C830.79 330.81 839.754 327.604 846.906 321.738L859.613 311.317C859.813 311.152 859.95 310.924 860.001 310.67C860.14 309.977 859.61 309.331 858.903 309.331H726.765C725.828 309.331 725.018 309.985 724.822 310.902C724.705 311.446 724.822 312.014 725.144 312.468Z"/>
<path d="M772.401 283.694H739.953C735.024 283.694 730.729 287.048 729.534 291.829C727.839 298.607 732.966 305.173 739.953 305.173H852.656C857.706 305.173 862.075 301.654 863.149 296.719C864.607 290.024 859.507 283.694 852.656 283.694H824.266C818.961 283.694 814.341 287.315 813.073 292.466L812.984 292.828C812.639 294.228 811.992 295.535 811.087 296.657C809.217 298.975 806.399 300.323 803.42 300.323H788.21H787.164C784.432 300.323 781.849 299.077 780.149 296.938L779.216 295.764C778.113 294.376 777.7 292.561 778.094 290.832C778.928 287.177 776.15 283.694 772.401 283.694Z"/>
<path d="M780.959 257.885H742.803C739.864 257.885 737.303 259.884 736.591 262.735C734.559 271.214 740.987 279.364 749.706 279.364H763.662C773.69 279.364 782.409 272.487 784.746 262.735C785.361 260.271 783.498 257.885 780.959 257.885Z"/>
<path d="M778.63 232.248H752.299C747.358 232.248 743.065 235.647 741.931 240.457C740.354 247.145 745.428 253.554 752.299 253.554H778.63C783.542 253.554 787.816 250.197 788.98 245.425C790.616 238.717 785.536 232.248 778.63 232.248Z"/>
<path d="M795.93 206.439H757.244C753.046 206.439 749.388 209.295 748.37 213.367C746.602 220.791 752.231 227.918 759.862 227.918H779.642C787.617 227.918 794.556 222.46 796.435 214.709L797.259 211.311C797.346 210.954 797.513 210.623 797.749 210.342C799.047 208.797 797.948 206.439 795.93 206.439Z"/>
<path d="M758.612 185.578L755.984 187.935C754.748 189.043 753.881 190.502 753.5 192.117C752.296 197.218 756.165 202.108 761.407 202.108H876.288C880.669 202.108 884.437 199.009 885.284 194.712C885.789 192.144 885.174 189.483 883.592 187.399L882.461 185.907C879.939 182.582 876.006 180.629 871.832 180.629H771.547C766.773 180.629 762.167 182.391 758.612 185.578Z"/>
<path d="M808.477 164H785.384C783.857 164 782.383 164.56 781.241 165.575C776.956 169.385 779.65 176.472 785.384 176.472H862.382C867.546 176.472 870.472 170.554 867.337 166.45C866.158 164.906 864.325 164 862.382 164H819.043H808.477Z"/>
<path d="M842.019 227.918H869.84C874.953 227.918 879.357 224.313 880.367 219.301C881.708 212.651 876.624 206.439 869.84 206.439H834.141C832.696 206.439 831.914 208.131 832.849 209.232C833.207 209.653 833.337 210.221 833.199 210.756L832.079 215.068C830.391 221.572 835.3 227.918 842.019 227.918Z"/>
<path d="M810.993 277.632H815.735C816.191 277.632 816.534 278.05 816.445 278.498C816.355 278.946 816.698 279.364 817.155 279.364H858.372C863.423 279.364 867.791 275.844 868.865 270.909C870.323 264.214 865.224 257.885 858.372 257.885H817.423C812.723 257.885 808.674 261.198 807.745 265.805L806.473 272.108C805.897 274.964 808.08 277.632 810.993 277.632Z"/>
<path d="M868.009 241.775H817.261C814.466 241.775 812.056 243.74 811.493 246.477C810.74 250.131 813.531 253.554 817.261 253.554H868.009C870.773 253.554 873.165 251.632 873.76 248.933C874.571 245.258 871.773 241.775 868.009 241.775Z"/>
<path d="M959.405 305.173H1026.22C1027.34 305.173 1028.31 304.416 1028.58 303.336C1028.96 301.806 1027.8 300.323 1026.22 300.323H1023.09C1019.93 300.323 1017.6 297.346 1018.37 294.273L1018.94 292.009C1019.99 287.785 1016.8 283.694 1012.45 283.694H981.238C976.224 283.694 971.864 287.133 970.696 292.009L970 294.916C969.24 298.087 966.405 300.323 963.144 300.323H959.405C958.262 300.323 957.274 301.122 957.034 302.24C956.711 303.75 957.861 305.173 959.405 305.173Z"/>
<path d="M963.817 330.81H1013.54C1018.53 330.81 1022.86 327.374 1024 322.516C1025.57 315.778 1020.46 309.331 1013.54 309.331H963.817C958.859 309.331 954.545 312.725 953.379 317.545C951.744 324.303 956.864 330.81 963.817 330.81Z"/>
<path d="M951.276 340.51H1017.55C1018.77 340.51 1019.84 339.682 1020.15 338.496C1020.59 336.797 1019.31 335.14 1017.55 335.14H951.276C950.021 335.14 948.934 336.01 948.658 337.234C948.278 338.913 949.555 340.51 951.276 340.51Z"/>
<path d="M944.571 271.742H971.705C973.7 271.742 975.164 273.617 974.68 275.553C974.196 277.489 975.66 279.364 977.655 279.364H1004.96C1014.98 279.364 1023.7 272.487 1026.04 262.735C1026.57 260.239 1024.67 257.885 1022.12 257.885H900.778C897.84 257.885 895.279 259.884 894.566 262.735C892.535 271.214 898.962 279.364 907.682 279.364H934.809C937.118 279.364 939.13 277.793 939.69 275.553C940.25 273.313 942.262 271.742 944.571 271.742Z"/>
<path d="M935.159 294.29L935.706 292.009C936.722 287.769 933.508 283.694 929.148 283.694H898.093C893.079 283.694 888.719 287.133 887.551 292.009L886.854 294.916C886.095 298.087 883.259 300.323 879.999 300.323H876.26C875.117 300.323 874.129 301.122 873.889 302.24C873.565 303.75 874.716 305.173 876.26 305.173H943.08C944.192 305.173 945.162 304.416 945.432 303.336C945.815 301.806 944.657 300.323 943.08 300.323H939.918C936.754 300.323 934.422 297.366 935.159 294.29Z"/>
<path d="M880.672 330.81H930.393C935.382 330.81 939.714 327.374 940.85 322.516C942.426 315.778 937.312 309.331 930.393 309.331H880.672C875.714 309.331 871.4 312.725 870.234 317.545C868.599 324.303 873.719 330.81 880.672 330.81Z"/>
<path d="M868.131 340.51H934.405C935.63 340.51 936.699 339.682 937.005 338.496C937.444 336.797 936.16 335.14 934.405 335.14H868.131C866.876 335.14 865.789 336.01 865.513 337.234C865.133 338.913 866.41 340.51 868.131 340.51Z"/>
<path d="M1019.75 232.248H910.275C905.333 232.248 901.04 235.647 899.906 240.457C898.329 247.145 903.403 253.554 910.275 253.554H1019.75C1024.66 253.554 1028.94 250.197 1030.1 245.425C1031.74 238.717 1026.66 232.248 1019.75 232.248Z"/>
<path d="M949.263 206.439H915.179C911.027 206.439 907.43 209.317 906.518 213.367C904.671 220.758 910.261 227.918 917.879 227.918H1019.4C1028.17 227.918 1035.79 221.898 1037.82 213.367C1038.7 209.848 1036.04 206.439 1032.41 206.439H998.324C994.172 206.439 990.575 209.317 989.664 213.367L989.56 213.789C987.688 221.375 980.882 226.705 973.068 226.705H965.12C958.133 226.705 953 220.151 954.673 213.367C955.553 209.848 952.891 206.439 949.263 206.439Z"/>
<path d="M959.387 180.629H912.198C907.24 180.629 902.926 184.024 901.76 188.843C900.125 195.601 905.245 202.108 912.198 202.108H959.387C964.345 202.108 968.659 198.713 969.825 193.894C971.46 187.136 966.34 180.629 959.387 180.629Z"/>
<path d="M918.297 164H912.666C909.774 164 907.261 165.988 906.597 168.803C905.672 172.718 908.643 176.472 912.666 176.472H969.139C972.031 176.472 974.543 174.483 975.208 171.669C976.132 167.753 973.162 164 969.139 164H966.452H918.297Z"/>
<path d="M1042.64 180.629H995.343C990.385 180.629 986.071 184.024 984.905 188.843C983.27 195.601 988.39 202.108 995.343 202.108H1042.64C1047.63 202.108 1051.96 198.672 1053.1 193.814C1054.67 187.077 1049.56 180.629 1042.64 180.629Z"/>
<path d="M1001.44 164H995.811C992.919 164 990.407 165.988 989.742 168.803C988.818 172.718 991.788 176.472 995.811 176.472H1052.28C1055.18 176.472 1057.69 174.483 1058.35 171.669C1059.28 167.753 1056.31 164 1052.28 164H1049.6H1001.44Z"/>
<path d="M121.25 309.331C118.93 309.331 117.318 311.641 118.121 313.819C119.005 316.22 122.153 316.772 123.801 314.814C125.628 312.645 124.086 309.331 121.25 309.331Z"/>
</mask>
<path d="M1081.01 305.173H1147.82C1148.94 305.173 1149.91 304.416 1150.18 303.336C1150.56 301.806 1149.4 300.323 1147.82 300.323H1144.66C1141.5 300.323 1139.17 297.366 1139.9 294.29L1140.45 292.009C1141.47 287.769 1138.25 283.694 1133.89 283.694H1102.84C1097.82 283.694 1093.46 287.133 1092.3 292.009L1091.6 294.916C1090.84 298.087 1088 300.323 1084.74 300.323H1081.01C1079.86 300.323 1078.87 301.122 1078.63 302.24C1078.31 303.75 1079.46 305.173 1081.01 305.173Z" fill="#00A0E3"/>
<path d="M1085.42 330.81H1135.03C1139.99 330.81 1144.3 327.415 1145.47 322.596C1147.1 315.837 1141.98 309.331 1135.03 309.331H1085.42C1080.46 309.331 1076.14 312.725 1074.98 317.545C1073.34 324.303 1078.46 330.81 1085.42 330.81Z" fill="#00A0E3"/>
<path d="M1072.88 340.51H1139.08C1140.34 340.51 1141.43 339.641 1141.7 338.416C1142.08 336.737 1140.81 335.14 1139.08 335.14H1072.88C1071.62 335.14 1070.53 336.01 1070.26 337.234C1069.88 338.913 1071.15 340.51 1072.88 340.51Z" fill="#00A0E3"/>
<path d="M1143.68 257.885H1105.52C1102.58 257.885 1100.02 259.884 1099.31 262.735C1097.28 271.214 1103.71 279.364 1112.43 279.364H1126.38C1136.41 279.364 1145.13 272.487 1147.47 262.735C1148.08 260.271 1146.22 257.885 1143.68 257.885Z" fill="#00A0E3"/>
<path d="M1141.35 232.248H1115.02C1110.08 232.248 1105.79 235.647 1104.65 240.457C1103.07 247.145 1108.15 253.554 1115.02 253.554H1141.35C1146.26 253.554 1150.54 250.197 1151.7 245.425C1153.34 238.717 1148.26 232.248 1141.35 232.248Z" fill="#00A0E3"/>
<path d="M1153.88 206.439H1119.96C1115.77 206.439 1112.11 209.295 1111.09 213.367C1109.32 220.791 1114.95 227.918 1122.58 227.918H1141C1149.77 227.918 1157.39 221.898 1159.42 213.367C1160.22 209.815 1157.52 206.439 1153.88 206.439Z" fill="#00A0E3"/>
<path d="M1064.6 213.367H1097.82C1099.41 213.367 1100.79 212.285 1101.18 210.743C1101.73 208.557 1100.07 206.439 1097.82 206.439H1064.6C1063.01 206.439 1061.63 207.521 1061.24 209.063C1060.69 211.249 1062.35 213.367 1064.6 213.367Z" fill="#00A0E3"/>
<path d="M1204.49 180.629H1076.58C1071.62 180.629 1067.31 184.024 1066.14 188.843C1064.51 195.601 1069.63 202.108 1076.58 202.108H1204.49C1209.45 202.108 1213.76 198.713 1214.93 193.894C1216.57 187.136 1211.44 180.629 1204.49 180.629Z" fill="#00A0E3"/>
<path d="M1092.21 164H1077.05C1074.16 164 1071.65 165.988 1070.98 168.803C1070.06 172.718 1073.03 176.472 1077.05 176.472H1214.24C1217.14 176.472 1219.65 174.483 1220.31 171.669C1221.24 167.753 1218.27 164 1214.24 164H1199.78H1181.76H1171.2H1123.04H1112.48H1092.21Z" fill="#00A0E3"/>
<path d="M1174.31 213.367H1207.57C1209.19 213.367 1210.6 212.244 1210.95 210.663C1211.44 208.498 1209.79 206.439 1207.57 206.439H1174.31C1172.69 206.439 1171.29 207.562 1170.93 209.143C1170.45 211.308 1172.09 213.367 1174.31 213.367Z" fill="#00A0E3"/>
<path d="M154.044 305.173H220.757C221.87 305.173 222.839 304.416 223.109 303.336C223.492 301.806 222.334 300.323 220.757 300.323H217.682C214.563 300.323 212.263 297.407 212.99 294.373L213.556 292.009C214.572 287.769 211.358 283.694 206.998 283.694H175.77C170.756 283.694 166.396 287.133 165.228 292.009L164.534 294.906C163.773 298.083 160.932 300.323 157.665 300.323H154.044C152.931 300.323 151.961 301.081 151.691 302.16C151.308 303.691 152.466 305.173 154.044 305.173Z" fill="#00A0E3"/>
<path d="M158.349 330.81H208.136C213.095 330.81 217.409 327.415 218.575 322.596C220.21 315.837 215.09 309.331 208.136 309.331H158.349C153.391 309.331 149.077 312.725 147.911 317.545C146.276 324.303 151.396 330.81 158.349 330.81Z" fill="#00A0E3"/>
<path d="M145.809 340.51H212.082C213.307 340.51 214.376 339.682 214.682 338.496C215.121 336.797 213.838 335.14 212.082 335.14H145.809C144.554 335.14 143.466 336.01 143.19 337.234C142.81 338.913 144.087 340.51 145.809 340.51Z" fill="#00A0E3"/>
<path d="M216.651 257.885H178.455C175.517 257.885 172.956 259.884 172.243 262.735C170.212 271.214 176.64 279.364 185.359 279.364H199.488C209.516 279.364 218.235 272.487 220.572 262.735C221.106 260.239 219.204 257.885 216.651 257.885Z" fill="#00A0E3"/>
<path d="M113.082 279.364H148.322C151.515 279.364 154.543 277.943 156.583 275.486C162.396 268.488 157.419 257.885 148.322 257.885H113.082C105.632 257.885 100.445 265.285 102.986 272.288C104.528 276.535 108.563 279.364 113.082 279.364Z" fill="#00A0E3"/>
<path d="M122.435 305.173H126.843C130.036 305.173 133.064 303.752 135.104 301.296C140.917 294.298 135.94 283.694 126.843 283.694H122.435C114.986 283.694 109.799 291.094 112.34 298.097C113.882 302.345 117.917 305.173 122.435 305.173Z" fill="#00A0E3"/>
<path d="M58.9092 279.364H73.0381C83.066 279.364 91.7853 272.487 94.1217 262.735C94.6566 260.239 92.7537 257.885 90.2008 257.885H52.0056C49.0674 257.885 46.5063 259.884 45.7937 262.735C43.7621 271.214 50.1898 279.364 58.9092 279.364Z" fill="#00A0E3"/>
<path d="M86.5398 294.373L87.1064 292.009C88.1221 287.769 84.9083 283.694 80.5486 283.694H49.3201C44.3062 283.694 39.9465 287.133 38.7783 292.009L38.0843 294.906C37.3231 298.083 34.4823 300.323 31.2152 300.323H27.5937C26.4809 300.323 25.5109 301.081 25.241 302.16C24.8584 303.691 26.016 305.173 27.5937 305.173H94.3069C95.4197 305.173 96.3897 304.416 96.6596 303.336C97.0422 301.806 95.8846 300.323 94.3069 300.323H91.2325C88.1127 300.323 85.8129 297.407 86.5398 294.373Z" fill="#00A0E3"/>
<path d="M31.8995 330.81H81.6866C86.6451 330.81 90.959 327.415 92.125 322.596C93.76 315.837 88.6397 309.331 81.6866 309.331H31.8995C26.941 309.331 22.6271 312.725 21.4611 317.545C19.8261 324.303 24.9464 330.81 31.8995 330.81Z" fill="#00A0E3"/>
<path d="M19.3588 340.51H85.6327C86.8571 340.51 87.9264 339.682 88.2324 338.496C88.6709 336.797 87.3878 335.14 85.6327 335.14H19.3588C18.1038 335.14 17.0162 336.01 16.7398 337.234C16.3606 338.913 17.6373 340.51 19.3588 340.51Z" fill="#00A0E3"/>
<path d="M214.283 232.248H61.609C56.6979 232.248 52.4232 235.606 51.2595 240.377C49.6232 247.085 54.7038 253.554 61.609 253.554H214.283C219.194 253.554 223.469 250.197 224.633 245.425C226.269 238.717 221.188 232.248 214.283 232.248Z" fill="#00A0E3"/>
<path d="M123.317 206.439H66.4067C62.2546 206.439 58.6572 209.317 57.7458 213.367C55.9782 220.791 61.6073 227.918 69.2385 227.918H123.317C130.767 227.918 135.953 220.518 133.412 213.515C131.871 209.267 127.835 206.439 123.317 206.439Z" fill="#00A0E3"/>
<path d="M113.963 180.629H63.4254C58.4669 180.629 54.153 184.024 52.987 188.843C51.3519 195.601 56.4722 202.108 63.4254 202.108H113.963C121.413 202.108 126.6 194.708 124.058 187.705C122.517 183.457 118.481 180.629 113.963 180.629Z" fill="#00A0E3"/>
<path d="M69.5246 164H63.8933C61.0013 164 58.4888 165.988 57.8243 168.803C56.8998 172.718 59.8701 176.472 63.8933 176.472H111.049C115.371 176.472 118.382 172.183 116.915 168.118C116.022 165.647 113.677 164 111.049 164H69.5246Z" fill="#00A0E3"/>
<path d="M226.941 206.439H165.474C162.299 206.439 159.286 207.844 157.245 210.277C151.384 217.265 156.353 227.918 165.474 227.918H213.929C222.698 227.918 230.319 221.898 232.35 213.367C233.23 209.848 230.568 206.439 226.941 206.439Z" fill="#00A0E3"/>
<path d="M237.171 180.629H186.984C183.791 180.629 180.763 182.05 178.723 184.506C172.91 191.504 177.887 202.108 186.984 202.108H237.171C242.16 202.108 246.492 198.672 247.628 193.814C249.204 187.077 244.09 180.629 237.171 180.629Z" fill="#00A0E3"/>
<path d="M244.303 164H198.895C197.044 164 195.289 164.822 194.105 166.244C190.72 170.305 193.608 176.472 198.895 176.472H246.882C249.744 176.472 252.238 174.524 252.932 171.748C253.916 167.813 250.939 164 246.882 164H244.303Z" fill="#00A0E3"/>
<path d="M235.11 305.173H301.929C303.073 305.173 304.061 304.375 304.301 303.256C304.624 301.747 303.473 300.323 301.929 300.323H298.856C295.681 300.323 293.341 297.356 294.081 294.269L294.623 292.009C295.638 287.769 292.425 283.694 288.065 283.694H257.01C251.996 283.694 247.636 287.133 246.468 292.009L245.794 294.821C245.021 298.048 242.136 300.323 238.818 300.323H235.11C233.997 300.323 233.027 301.081 232.757 302.16C232.375 303.691 233.532 305.173 235.11 305.173Z" fill="#00A0E3"/>
<path d="M239.482 330.81H289.203C294.161 330.81 298.475 327.415 299.641 322.596C301.276 315.837 296.156 309.331 289.203 309.331H239.482C234.493 309.331 230.161 312.766 229.025 317.624C227.449 324.362 232.563 330.81 239.482 330.81Z" fill="#00A0E3"/>
<path d="M226.982 340.51H293.256C294.511 340.51 295.598 339.641 295.875 338.416C296.254 336.737 294.977 335.14 293.256 335.14H226.982C225.758 335.14 224.688 335.969 224.382 337.154C223.944 338.854 225.227 340.51 226.982 340.51Z" fill="#00A0E3"/>
<path d="M297.851 257.885H259.483C256.589 257.885 254.089 259.906 253.483 262.735C251.452 271.214 257.879 279.364 266.599 279.364H280.554C290.582 279.364 299.302 272.487 301.638 262.735C302.254 260.271 300.391 257.885 297.851 257.885Z" fill="#00A0E3"/>
<path d="M295.523 232.248H269.125C264.214 232.248 259.939 235.606 258.776 240.377C257.139 247.085 262.22 253.554 269.125 253.554H295.523C300.434 253.554 304.709 250.197 305.872 245.425C307.509 238.717 302.428 232.248 295.523 232.248Z" fill="#00A0E3"/>
<path d="M308.047 206.439H274.136C269.939 206.439 266.28 209.295 265.262 213.367C263.494 220.791 269.124 227.918 276.755 227.918H294.954C303.769 227.918 311.452 221.919 313.59 213.367C314.389 209.815 311.688 206.439 308.047 206.439Z" fill="#00A0E3"/>
<path d="M318.304 180.629H271.115C266.156 180.629 261.842 184.024 260.676 188.843C259.041 195.601 264.162 202.108 271.115 202.108H318.304C323.262 202.108 327.576 198.713 328.742 193.894C330.377 187.136 325.257 180.629 318.304 180.629Z" fill="#00A0E3"/>
<path d="M277.214 164H271.583C268.691 164 266.178 165.988 265.514 168.803C264.589 172.718 267.56 176.472 271.583 176.472H328.056C330.948 176.472 333.46 174.483 334.125 171.669C335.049 167.753 332.079 164 328.056 164H325.369H277.214Z" fill="#00A0E3"/>
<path d="M374.736 340.51H377.508H383.224H417.065C417.696 340.51 418.306 340.288 418.789 339.883C420.711 338.273 419.573 335.14 417.065 335.14H308.981C307.726 335.14 306.638 336.01 306.362 337.234C305.983 338.913 307.259 340.51 308.981 340.51H374.736Z" fill="#00A0E3"/>
<path d="M450.515 309.331H321.522C316.563 309.331 312.249 312.725 311.083 317.545C309.448 324.303 314.568 330.81 321.522 330.81H415.199C424.536 330.81 433.578 327.544 440.76 321.577L451.666 312.517C451.988 312.249 452.208 311.876 452.285 311.464C452.493 310.355 451.642 309.331 450.515 309.331Z" fill="#00A0E3"/>
<path d="M320.837 300.323H317.216C316.103 300.323 315.133 301.081 314.863 302.16C314.48 303.691 315.638 305.173 317.216 305.173H444.62C449.796 305.173 454.236 301.482 455.18 296.392C456.404 289.789 451.336 283.694 444.62 283.694H417.789C412.145 283.694 407.237 287.561 405.916 293.048C405.05 297.032 400.892 300.323 396.908 300.323H382.185C378.385 300.323 375.588 296.745 376.469 293.048C377.616 288.28 374.003 283.694 369.099 283.694H338.942C333.928 283.694 329.569 287.133 328.4 292.009L327.706 294.905C326.945 298.083 324.104 300.323 320.837 300.323Z" fill="#00A0E3"/>
<path d="M371.309 257.885H341.628C338.689 257.885 336.128 259.884 335.416 262.735C333.384 271.214 339.812 279.364 348.531 279.364H371.309C376.267 279.364 380.581 275.969 381.747 271.15C383.382 264.391 378.262 257.885 371.309 257.885Z" fill="#00A0E3"/>
<path d="M377.562 232.248H351.231C346.32 232.248 342.045 235.606 340.881 240.377C339.245 247.085 344.326 253.554 351.231 253.554H377.562C382.504 253.554 386.797 250.156 387.931 245.346C389.508 238.658 384.434 232.248 377.562 232.248Z" fill="#00A0E3"/>
<path d="M383.607 206.439H356.242C352.045 206.439 348.386 209.295 347.368 213.367C345.6 220.791 351.229 227.918 358.861 227.918H383.607C388.566 227.918 392.88 224.523 394.046 219.704C395.681 212.945 390.56 206.439 383.607 206.439Z" fill="#00A0E3"/>
<path d="M464.261 180.629H353.114C348.125 180.629 343.793 184.065 342.657 188.923C341.081 195.661 346.194 202.108 353.114 202.108H469.414C473.443 202.108 476.972 199.405 478.022 195.515C478.755 192.797 478.162 189.892 476.42 187.679L474.962 185.825C472.38 182.544 468.436 180.629 464.261 180.629Z" fill="#00A0E3"/>
<path d="M359.147 164H353.515C350.623 164 348.111 165.988 347.446 168.803C346.522 172.718 349.492 176.472 353.515 176.472H454.518C459.732 176.472 462.644 170.453 459.407 166.365C458.225 164.871 456.424 164 454.518 164H436.922H426.356H418.041H407.475H359.147Z" fill="#00A0E3"/>
<path d="M438.437 227.918H454.876C463.645 227.918 471.267 221.898 473.298 213.367C474.257 209.881 471.633 206.439 468.017 206.439H429.91C427.732 206.439 426.063 209.36 425.49 211.462C423.46 219.845 429.811 227.918 438.437 227.918Z" fill="#00A0E3"/>
<path d="M428.9 253.554H455.231C460.142 253.554 464.417 250.197 465.58 245.425C467.217 238.717 462.136 232.248 455.231 232.248H428.9C423.958 232.248 419.665 235.647 418.531 240.457C416.954 247.145 422.028 253.554 428.9 253.554Z" fill="#00A0E3"/>
<path d="M422.855 279.364H441.309C451.119 279.364 459.538 272.377 461.346 262.735C461.962 260.271 460.098 257.885 457.559 257.885H422.855C417.896 257.885 413.582 261.279 412.416 266.099C410.781 272.857 415.901 279.364 422.855 279.364Z" fill="#00A0E3"/>
<path d="M768.983 340.51H778.51H823.11C823.728 340.51 824.328 340.296 824.807 339.906C826.764 338.309 825.635 335.14 823.11 335.14H746.465C744.285 335.14 743.014 337.601 744.276 339.379C744.779 340.088 745.595 340.51 746.465 340.51H768.983Z" fill="#00A0E3"/>
<path d="M725.144 312.468L730.847 320.511C735.428 326.971 742.856 330.81 750.775 330.81H821.54C830.79 330.81 839.754 327.604 846.906 321.738L859.613 311.317C859.813 311.152 859.95 310.924 860.001 310.67C860.14 309.977 859.61 309.331 858.903 309.331H726.765C725.828 309.331 725.018 309.985 724.822 310.902C724.705 311.446 724.822 312.014 725.144 312.468Z" fill="#00A0E3"/>
<path d="M772.401 283.694H739.953C735.024 283.694 730.729 287.048 729.534 291.829C727.839 298.607 732.966 305.173 739.953 305.173H852.656C857.706 305.173 862.075 301.654 863.149 296.719C864.607 290.024 859.507 283.694 852.656 283.694H824.266C818.961 283.694 814.341 287.315 813.073 292.466L812.984 292.828C812.639 294.228 811.992 295.535 811.087 296.657C809.217 298.975 806.399 300.323 803.42 300.323H788.21H787.164C784.432 300.323 781.849 299.077 780.149 296.938L779.216 295.764C778.113 294.376 777.7 292.561 778.094 290.832C778.928 287.177 776.15 283.694 772.401 283.694Z" fill="#00A0E3"/>
<path d="M780.959 257.885H742.803C739.864 257.885 737.303 259.884 736.591 262.735C734.559 271.214 740.987 279.364 749.706 279.364H763.662C773.69 279.364 782.409 272.487 784.746 262.735C785.361 260.271 783.498 257.885 780.959 257.885Z" fill="#00A0E3"/>
<path d="M778.63 232.248H752.299C747.358 232.248 743.065 235.647 741.931 240.457C740.354 247.145 745.428 253.554 752.299 253.554H778.63C783.542 253.554 787.816 250.197 788.98 245.425C790.616 238.717 785.536 232.248 778.63 232.248Z" fill="#00A0E3"/>
<path d="M795.93 206.439H757.244C753.046 206.439 749.388 209.295 748.37 213.367C746.602 220.791 752.231 227.918 759.862 227.918H779.642C787.617 227.918 794.556 222.46 796.435 214.709L797.259 211.311C797.346 210.954 797.513 210.623 797.749 210.342C799.047 208.797 797.948 206.439 795.93 206.439Z" fill="#00A0E3"/>
<path d="M758.612 185.578L755.984 187.935C754.748 189.043 753.881 190.502 753.5 192.117C752.296 197.218 756.165 202.108 761.407 202.108H876.288C880.669 202.108 884.437 199.009 885.284 194.712C885.789 192.144 885.174 189.483 883.592 187.399L882.461 185.907C879.939 182.582 876.006 180.629 871.832 180.629H771.547C766.773 180.629 762.167 182.391 758.612 185.578Z" fill="#00A0E3"/>
<path d="M808.477 164H785.384C783.857 164 782.383 164.56 781.241 165.575C776.956 169.385 779.65 176.472 785.384 176.472H862.382C867.546 176.472 870.472 170.554 867.337 166.45C866.158 164.906 864.325 164 862.382 164H819.043H808.477Z" fill="#00A0E3"/>
<path d="M842.019 227.918H869.84C874.953 227.918 879.357 224.313 880.367 219.301C881.708 212.651 876.624 206.439 869.84 206.439H834.141C832.696 206.439 831.914 208.131 832.849 209.232C833.207 209.653 833.337 210.221 833.199 210.756L832.079 215.068C830.391 221.572 835.3 227.918 842.019 227.918Z" fill="#00A0E3"/>
<path d="M810.993 277.632H815.735C816.191 277.632 816.534 278.05 816.445 278.498C816.355 278.946 816.698 279.364 817.155 279.364H858.372C863.423 279.364 867.791 275.844 868.865 270.909C870.323 264.214 865.224 257.885 858.372 257.885H817.423C812.723 257.885 808.674 261.198 807.745 265.805L806.473 272.108C805.897 274.964 808.08 277.632 810.993 277.632Z" fill="#00A0E3"/>
<path d="M868.009 241.775H817.261C814.466 241.775 812.056 243.74 811.493 246.477C810.74 250.131 813.531 253.554 817.261 253.554H868.009C870.773 253.554 873.165 251.632 873.76 248.933C874.571 245.258 871.773 241.775 868.009 241.775Z" fill="#00A0E3"/>
<path d="M959.405 305.173H1026.22C1027.34 305.173 1028.31 304.416 1028.58 303.336C1028.96 301.806 1027.8 300.323 1026.22 300.323H1023.09C1019.93 300.323 1017.6 297.346 1018.37 294.273L1018.94 292.009C1019.99 287.785 1016.8 283.694 1012.45 283.694H981.238C976.224 283.694 971.864 287.133 970.696 292.009L970 294.916C969.24 298.087 966.405 300.323 963.144 300.323H959.405C958.262 300.323 957.274 301.122 957.034 302.24C956.711 303.75 957.861 305.173 959.405 305.173Z" fill="#00A0E3"/>
<path d="M963.817 330.81H1013.54C1018.53 330.81 1022.86 327.374 1024 322.516C1025.57 315.778 1020.46 309.331 1013.54 309.331H963.817C958.859 309.331 954.545 312.725 953.379 317.545C951.744 324.303 956.864 330.81 963.817 330.81Z" fill="#00A0E3"/>
<path d="M951.276 340.51H1017.55C1018.77 340.51 1019.84 339.682 1020.15 338.496C1020.59 336.797 1019.31 335.14 1017.55 335.14H951.276C950.021 335.14 948.934 336.01 948.658 337.234C948.278 338.913 949.555 340.51 951.276 340.51Z" fill="#00A0E3"/>
<path d="M944.571 271.742H971.705C973.7 271.742 975.164 273.617 974.68 275.553C974.196 277.489 975.66 279.364 977.655 279.364H1004.96C1014.98 279.364 1023.7 272.487 1026.04 262.735C1026.57 260.239 1024.67 257.885 1022.12 257.885H900.778C897.84 257.885 895.279 259.884 894.566 262.735C892.535 271.214 898.962 279.364 907.682 279.364H934.809C937.118 279.364 939.13 277.793 939.69 275.553C940.25 273.313 942.262 271.742 944.571 271.742Z" fill="#00A0E3"/>
<path d="M935.159 294.29L935.706 292.009C936.722 287.769 933.508 283.694 929.148 283.694H898.093C893.079 283.694 888.719 287.133 887.551 292.009L886.854 294.916C886.095 298.087 883.259 300.323 879.999 300.323H876.26C875.117 300.323 874.129 301.122 873.889 302.24C873.565 303.75 874.716 305.173 876.26 305.173H943.08C944.192 305.173 945.162 304.416 945.432 303.336C945.815 301.806 944.657 300.323 943.08 300.323H939.918C936.754 300.323 934.422 297.366 935.159 294.29Z" fill="#00A0E3"/>
<path d="M880.672 330.81H930.393C935.382 330.81 939.714 327.374 940.85 322.516C942.426 315.778 937.312 309.331 930.393 309.331H880.672C875.714 309.331 871.4 312.725 870.234 317.545C868.599 324.303 873.719 330.81 880.672 330.81Z" fill="#00A0E3"/>
<path d="M868.131 340.51H934.405C935.63 340.51 936.699 339.682 937.005 338.496C937.444 336.797 936.16 335.14 934.405 335.14H868.131C866.876 335.14 865.789 336.01 865.513 337.234C865.133 338.913 866.41 340.51 868.131 340.51Z" fill="#00A0E3"/>
<path d="M1019.75 232.248H910.275C905.333 232.248 901.04 235.647 899.906 240.457C898.329 247.145 903.403 253.554 910.275 253.554H1019.75C1024.66 253.554 1028.94 250.197 1030.1 245.425C1031.74 238.717 1026.66 232.248 1019.75 232.248Z" fill="#00A0E3"/>
<path d="M949.263 206.439H915.179C911.027 206.439 907.43 209.317 906.518 213.367C904.671 220.758 910.261 227.918 917.879 227.918H1019.4C1028.17 227.918 1035.79 221.898 1037.82 213.367C1038.7 209.848 1036.04 206.439 1032.41 206.439H998.324C994.172 206.439 990.575 209.317 989.664 213.367L989.56 213.789C987.688 221.375 980.882 226.705 973.068 226.705H965.12C958.133 226.705 953 220.151 954.673 213.367C955.553 209.848 952.891 206.439 949.263 206.439Z" fill="#00A0E3"/>
<path d="M959.387 180.629H912.198C907.24 180.629 902.926 184.024 901.76 188.843C900.125 195.601 905.245 202.108 912.198 202.108H959.387C964.345 202.108 968.659 198.713 969.825 193.894C971.46 187.136 966.34 180.629 959.387 180.629Z" fill="#00A0E3"/>
<path d="M918.297 164H912.666C909.774 164 907.261 165.988 906.597 168.803C905.672 172.718 908.643 176.472 912.666 176.472H969.139C972.031 176.472 974.543 174.483 975.208 171.669C976.132 167.753 973.162 164 969.139 164H966.452H918.297Z" fill="#00A0E3"/>
<path d="M1042.64 180.629H995.343C990.385 180.629 986.071 184.024 984.905 188.843C983.27 195.601 988.39 202.108 995.343 202.108H1042.64C1047.63 202.108 1051.96 198.672 1053.1 193.814C1054.67 187.077 1049.56 180.629 1042.64 180.629Z" fill="#00A0E3"/>
<path d="M1001.44 164H995.811C992.919 164 990.407 165.988 989.742 168.803C988.818 172.718 991.788 176.472 995.811 176.472H1052.28C1055.18 176.472 1057.69 174.483 1058.35 171.669C1059.28 167.753 1056.31 164 1052.28 164H1049.6H1001.44Z" fill="#00A0E3"/>
<path d="M121.25 309.331C118.93 309.331 117.318 311.641 118.121 313.819C119.005 316.22 122.153 316.772 123.801 314.814C125.628 312.645 124.086 309.331 121.25 309.331Z" fill="#00A0E3"/>
<path d="M1081.01 305.173H1147.82C1148.94 305.173 1149.91 304.416 1150.18 303.336C1150.56 301.806 1149.4 300.323 1147.82 300.323H1144.66C1141.5 300.323 1139.17 297.366 1139.9 294.29L1140.45 292.009C1141.47 287.769 1138.25 283.694 1133.89 283.694H1102.84C1097.82 283.694 1093.46 287.133 1092.3 292.009L1091.6 294.916C1090.84 298.087 1088 300.323 1084.74 300.323H1081.01C1079.86 300.323 1078.87 301.122 1078.63 302.24C1078.31 303.75 1079.46 305.173 1081.01 305.173Z" stroke="black" stroke-width="10" mask="url(#path-3-outside-1_15_138)"/>
<path d="M1085.42 330.81H1135.03C1139.99 330.81 1144.3 327.415 1145.47 322.596C1147.1 315.837 1141.98 309.331 1135.03 309.331H1085.42C1080.46 309.331 1076.14 312.725 1074.98 317.545C1073.34 324.303 1078.46 330.81 1085.42 330.81Z" stroke="black" stroke-width="10" mask="url(#path-3-outside-1_15_138)"/>
<path d="M1072.88 340.51H1139.08C1140.34 340.51 1141.43 339.641 1141.7 338.416C1142.08 336.737 1140.81 335.14 1139.08 335.14H1072.88C1071.62 335.14 1070.53 336.01 1070.26 337.234C1069.88 338.913 1071.15 340.51 1072.88 340.51Z" stroke="black" stroke-width="10" mask="url(#path-3-outside-1_15_138)"/>
<path d="M1143.68 257.885H1105.52C1102.58 257.885 1100.02 259.884 1099.31 262.735C1097.28 271.214 1103.71 279.364 1112.43 279.364H1126.38C1136.41 279.364 1145.13 272.487 1147.47 262.735C1148.08 260.271 1146.22 257.885 1143.68 257.885Z" stroke="black" stroke-width="10" mask="url(#path-3-outside-1_15_138)"/>
<path d="M1141.35 232.248H1115.02C1110.08 232.248 1105.79 235.647 1104.65 240.457C1103.07 247.145 1108.15 253.554 1115.02 253.554H1141.35C1146.26 253.554 1150.54 250.197 1151.7 245.425C1153.34 238.717 1148.26 232.248 1141.35 232.248Z" stroke="black" stroke-width="10" mask="url(#path-3-outside-1_15_138)"/>
<path d="M1153.88 206.439H1119.96C1115.77 206.439 1112.11 209.295 1111.09 213.367C1109.32 220.791 1114.95 227.918 1122.58 227.918H1141C1149.77 227.918 1157.39 221.898 1159.42 213.367C1160.22 209.815 1157.52 206.439 1153.88 206.439Z" stroke="black" stroke-width="10" mask="url(#path-3-outside-1_15_138)"/>
<path d="M1064.6 213.367H1097.82C1099.41 213.367 1100.79 212.285 1101.18 210.743C1101.73 208.557 1100.07 206.439 1097.82 206.439H1064.6C1063.01 206.439 1061.63 207.521 1061.24 209.063C1060.69 211.249 1062.35 213.367 1064.6 213.367Z" stroke="black" stroke-width="10" mask="url(#path-3-outside-1_15_138)"/>
<path d="M1204.49 180.629H1076.58C1071.62 180.629 1067.31 184.024 1066.14 188.843C1064.51 195.601 1069.63 202.108 1076.58 202.108H1204.49C1209.45 202.108 1213.76 198.713 1214.93 193.894C1216.57 187.136 1211.44 180.629 1204.49 180.629Z" stroke="black" stroke-width="10" mask="url(#path-3-outside-1_15_138)"/>
<path d="M1092.21 164H1077.05C1074.16 164 1071.65 165.988 1070.98 168.803C1070.06 172.718 1073.03 176.472 1077.05 176.472H1214.24C1217.14 176.472 1219.65 174.483 1220.31 171.669C1221.24 167.753 1218.27 164 1214.24 164H1199.78H1181.76H1171.2H1123.04H1112.48H1092.21Z" stroke="black" stroke-width="10" mask="url(#path-3-outside-1_15_138)"/>
<path d="M1174.31 213.367H1207.57C1209.19 213.367 1210.6 212.244 1210.95 210.663C1211.44 208.498 1209.79 206.439 1207.57 206.439H1174.31C1172.69 206.439 1171.29 207.562 1170.93 209.143C1170.45 211.308 1172.09 213.367 1174.31 213.367Z" stroke="black" stroke-width="10" mask="url(#path-3-outside-1_15_138)"/>
<path d="M154.044 305.173H220.757C221.87 305.173 222.839 304.416 223.109 303.336C223.492 301.806 222.334 300.323 220.757 300.323H217.682C214.563 300.323 212.263 297.407 212.99 294.373L213.556 292.009C214.572 287.769 211.358 283.694 206.998 283.694H175.77C170.756 283.694 166.396 287.133 165.228 292.009L164.534 294.906C163.773 298.083 160.932 300.323 157.665 300.323H154.044C152.931 300.323 151.961 301.081 151.691 302.16C151.308 303.691 152.466 305.173 154.044 305.173Z" stroke="black" stroke-width="10" mask="url(#path-3-outside-1_15_138)"/>
<path d="M158.349 330.81H208.136C213.095 330.81 217.409 327.415 218.575 322.596C220.21 315.837 215.09 309.331 208.136 309.331H158.349C153.391 309.331 149.077 312.725 147.911 317.545C146.276 324.303 151.396 330.81 158.349 330.81Z" stroke="black" stroke-width="10" mask="url(#path-3-outside-1_15_138)"/>
<path d="M145.809 340.51H212.082C213.307 340.51 214.376 339.682 214.682 338.496C215.121 336.797 213.838 335.14 212.082 335.14H145.809C144.554 335.14 143.466 336.01 143.19 337.234C142.81 338.913 144.087 340.51 145.809 340.51Z" stroke="black" stroke-width="10" mask="url(#path-3-outside-1_15_138)"/>
<path d="M216.651 257.885H178.455C175.517 257.885 172.956 259.884 172.243 262.735C170.212 271.214 176.64 279.364 185.359 279.364H199.488C209.516 279.364 218.235 272.487 220.572 262.735C221.106 260.239 219.204 257.885 216.651 257.885Z" stroke="black" stroke-width="10" mask="url(#path-3-outside-1_15_138)"/>
<path d="M113.082 279.364H148.322C151.515 279.364 154.543 277.943 156.583 275.486C162.396 268.488 157.419 257.885 148.322 257.885H113.082C105.632 257.885 100.445 265.285 102.986 272.288C104.528 276.535 108.563 279.364 113.082 279.364Z" stroke="black" stroke-width="10" mask="url(#path-3-outside-1_15_138)"/>
<path d="M122.435 305.173H126.843C130.036 305.173 133.064 303.752 135.104 301.296C140.917 294.298 135.94 283.694 126.843 283.694H122.435C114.986 283.694 109.799 291.094 112.34 298.097C113.882 302.345 117.917 305.173 122.435 305.173Z" stroke="black" stroke-width="10" mask="url(#path-3-outside-1_15_138)"/>
<path d="M58.9092 279.364H73.0381C83.066 279.364 91.7853 272.487 94.1217 262.735C94.6566 260.239 92.7537 257.885 90.2008 257.885H52.0056C49.0674 257.885 46.5063 259.884 45.7937 262.735C43.7621 271.214 50.1898 279.364 58.9092 279.364Z" stroke="black" stroke-width="10" mask="url(#path-3-outside-1_15_138)"/>
<path d="M86.5398 294.373L87.1064 292.009C88.1221 287.769 84.9083 283.694 80.5486 283.694H49.3201C44.3062 283.694 39.9465 287.133 38.7783 292.009L38.0843 294.906C37.3231 298.083 34.4823 300.323 31.2152 300.323H27.5937C26.4809 300.323 25.5109 301.081 25.241 302.16C24.8584 303.691 26.016 305.173 27.5937 305.173H94.3069C95.4197 305.173 96.3897 304.416 96.6596 303.336C97.0422 301.806 95.8846 300.323 94.3069 300.323H91.2325C88.1127 300.323 85.8129 297.407 86.5398 294.373Z" stroke="black" stroke-width="10" mask="url(#path-3-outside-1_15_138)"/>
<path d="M31.8995 330.81H81.6866C86.6451 330.81 90.959 327.415 92.125 322.596C93.76 315.837 88.6397 309.331 81.6866 309.331H31.8995C26.941 309.331 22.6271 312.725 21.4611 317.545C19.8261 324.303 24.9464 330.81 31.8995 330.81Z" stroke="black" stroke-width="10" mask="url(#path-3-outside-1_15_138)"/>
<path d="M19.3588 340.51H85.6327C86.8571 340.51 87.9264 339.682 88.2324 338.496C88.6709 336.797 87.3878 335.14 85.6327 335.14H19.3588C18.1038 335.14 17.0162 336.01 16.7398 337.234C16.3606 338.913 17.6373 340.51 19.3588 340.51Z" stroke="black" stroke-width="10" mask="url(#path-3-outside-1_15_138)"/>
<path d="M214.283 232.248H61.609C56.6979 232.248 52.4232 235.606 51.2595 240.377C49.6232 247.085 54.7038 253.554 61.609 253.554H214.283C219.194 253.554 223.469 250.197 224.633 245.425C226.269 238.717 221.188 232.248 214.283 232.248Z" stroke="black" stroke-width="10" mask="url(#path-3-outside-1_15_138)"/>
<path d="M123.317 206.439H66.4067C62.2546 206.439 58.6572 209.317 57.7458 213.367C55.9782 220.791 61.6073 227.918 69.2385 227.918H123.317C130.767 227.918 135.953 220.518 133.412 213.515C131.871 209.267 127.835 206.439 123.317 206.439Z" stroke="black" stroke-width="10" mask="url(#path-3-outside-1_15_138)"/>
<path d="M113.963 180.629H63.4254C58.4669 180.629 54.153 184.024 52.987 188.843C51.3519 195.601 56.4722 202.108 63.4254 202.108H113.963C121.413 202.108 126.6 194.708 124.058 187.705C122.517 183.457 118.481 180.629 113.963 180.629Z" stroke="black" stroke-width="10" mask="url(#path-3-outside-1_15_138)"/>
<path d="M69.5246 164H63.8933C61.0013 164 58.4888 165.988 57.8243 168.803C56.8998 172.718 59.8701 176.472 63.8933 176.472H111.049C115.371 176.472 118.382 172.183 116.915 168.118C116.022 165.647 113.677 164 111.049 164H69.5246Z" stroke="black" stroke-width="10" mask="url(#path-3-outside-1_15_138)"/>
<path d="M226.941 206.439H165.474C162.299 206.439 159.286 207.844 157.245 210.277C151.384 217.265 156.353 227.918 165.474 227.918H213.929C222.698 227.918 230.319 221.898 232.35 213.367C233.23 209.848 230.568 206.439 226.941 206.439Z" stroke="black" stroke-width="10" mask="url(#path-3-outside-1_15_138)"/>
<path d="M237.171 180.629H186.984C183.791 180.629 180.763 182.05 178.723 184.506C172.91 191.504 177.887 202.108 186.984 202.108H237.171C242.16 202.108 246.492 198.672 247.628 193.814C249.204 187.077 244.09 180.629 237.171 180.629Z" stroke="black" stroke-width="10" mask="url(#path-3-outside-1_15_138)"/>
<path d="M244.303 164H198.895C197.044 164 195.289 164.822 194.105 166.244C190.72 170.305 193.608 176.472 198.895 176.472H246.882C249.744 176.472 252.238 174.524 252.932 171.748C253.916 167.813 250.939 164 246.882 164H244.303Z" stroke="black" stroke-width="10" mask="url(#path-3-outside-1_15_138)"/>
<path d="M235.11 305.173H301.929C303.073 305.173 304.061 304.375 304.301 303.256C304.624 301.747 303.473 300.323 301.929 300.323H298.856C295.681 300.323 293.341 297.356 294.081 294.269L294.623 292.009C295.638 287.769 292.425 283.694 288.065 283.694H257.01C251.996 283.694 247.636 287.133 246.468 292.009L245.794 294.821C245.021 298.048 242.136 300.323 238.818 300.323H235.11C233.997 300.323 233.027 301.081 232.757 302.16C232.375 303.691 233.532 305.173 235.11 305.173Z" stroke="black" stroke-width="10" mask="url(#path-3-outside-1_15_138)"/>
<path d="M239.482 330.81H289.203C294.161 330.81 298.475 327.415 299.641 322.596C301.276 315.837 296.156 309.331 289.203 309.331H239.482C234.493 309.331 230.161 312.766 229.025 317.624C227.449 324.362 232.563 330.81 239.482 330.81Z" stroke="black" stroke-width="10" mask="url(#path-3-outside-1_15_138)"/>
<path d="M226.982 340.51H293.256C294.511 340.51 295.598 339.641 295.875 338.416C296.254 336.737 294.977 335.14 293.256 335.14H226.982C225.758 335.14 224.688 335.969 224.382 337.154C223.944 338.854 225.227 340.51 226.982 340.51Z" stroke="black" stroke-width="10" mask="url(#path-3-outside-1_15_138)"/>
<path d="M297.851 257.885H259.483C256.589 257.885 254.089 259.906 253.483 262.735C251.452 271.214 257.879 279.364 266.599 279.364H280.554C290.582 279.364 299.302 272.487 301.638 262.735C302.254 260.271 300.391 257.885 297.851 257.885Z" stroke="black" stroke-width="10" mask="url(#path-3-outside-1_15_138)"/>
<path d="M295.523 232.248H269.125C264.214 232.248 259.939 235.606 258.776 240.377C257.139 247.085 262.22 253.554 269.125 253.554H295.523C300.434 253.554 304.709 250.197 305.872 245.425C307.509 238.717 302.428 232.248 295.523 232.248Z" stroke="black" stroke-width="10" mask="url(#path-3-outside-1_15_138)"/>
<path d="M308.047 206.439H274.136C269.939 206.439 266.28 209.295 265.262 213.367C263.494 220.791 269.124 227.918 276.755 227.918H294.954C303.769 227.918 311.452 221.919 313.59 213.367C314.389 209.815 311.688 206.439 308.047 206.439Z" stroke="black" stroke-width="10" mask="url(#path-3-outside-1_15_138)"/>
<path d="M318.304 180.629H271.115C266.156 180.629 261.842 184.024 260.676 188.843C259.041 195.601 264.162 202.108 271.115 202.108H318.304C323.262 202.108 327.576 198.713 328.742 193.894C330.377 187.136 325.257 180.629 318.304 180.629Z" stroke="black" stroke-width="10" mask="url(#path-3-outside-1_15_138)"/>
<path d="M277.214 164H271.583C268.691 164 266.178 165.988 265.514 168.803C264.589 172.718 267.56 176.472 271.583 176.472H328.056C330.948 176.472 333.46 174.483 334.125 171.669C335.049 167.753 332.079 164 328.056 164H325.369H277.214Z" stroke="black" stroke-width="10" mask="url(#path-3-outside-1_15_138)"/>
<path d="M374.736 340.51H377.508H383.224H417.065C417.696 340.51 418.306 340.288 418.789 339.883C420.711 338.273 419.573 335.14 417.065 335.14H308.981C307.726 335.14 306.638 336.01 306.362 337.234C305.983 338.913 307.259 340.51 308.981 340.51H374.736Z" stroke="black" stroke-width="10" mask="url(#path-3-outside-1_15_138)"/>
<path d="M450.515 309.331H321.522C316.563 309.331 312.249 312.725 311.083 317.545C309.448 324.303 314.568 330.81 321.522 330.81H415.199C424.536 330.81 433.578 327.544 440.76 321.577L451.666 312.517C451.988 312.249 452.208 311.876 452.285 311.464C452.493 310.355 451.642 309.331 450.515 309.331Z" stroke="black" stroke-width="10" mask="url(#path-3-outside-1_15_138)"/>
<path d="M320.837 300.323H317.216C316.103 300.323 315.133 301.081 314.863 302.16C314.48 303.691 315.638 305.173 317.216 305.173H444.62C449.796 305.173 454.236 301.482 455.18 296.392C456.404 289.789 451.336 283.694 444.62 283.694H417.789C412.145 283.694 407.237 287.561 405.916 293.048C405.05 297.032 400.892 300.323 396.908 300.323H382.185C378.385 300.323 375.588 296.745 376.469 293.048C377.616 288.28 374.003 283.694 369.099 283.694H338.942C333.928 283.694 329.569 287.133 328.4 292.009L327.706 294.905C326.945 298.083 324.104 300.323 320.837 300.323Z" stroke="black" stroke-width="10" mask="url(#path-3-outside-1_15_138)"/>
<path d="M371.309 257.885H341.628C338.689 257.885 336.128 259.884 335.416 262.735C333.384 271.214 339.812 279.364 348.531 279.364H371.309C376.267 279.364 380.581 275.969 381.747 271.15C383.382 264.391 378.262 257.885 371.309 257.885Z" stroke="black" stroke-width="10" mask="url(#path-3-outside-1_15_138)"/>
<path d="M377.562 232.248H351.231C346.32 232.248 342.045 235.606 340.881 240.377C339.245 247.085 344.326 253.554 351.231 253.554H377.562C382.504 253.554 386.797 250.156 387.931 245.346C389.508 238.658 384.434 232.248 377.562 232.248Z" stroke="black" stroke-width="10" mask="url(#path-3-outside-1_15_138)"/>
<path d="M383.607 206.439H356.242C352.045 206.439 348.386 209.295 347.368 213.367C345.6 220.791 351.229 227.918 358.861 227.918H383.607C388.566 227.918 392.88 224.523 394.046 219.704C395.681 212.945 390.56 206.439 383.607 206.439Z" stroke="black" stroke-width="10" mask="url(#path-3-outside-1_15_138)"/>
<path d="M464.261 180.629H353.114C348.125 180.629 343.793 184.065 342.657 188.923C341.081 195.661 346.194 202.108 353.114 202.108H469.414C473.443 202.108 476.972 199.405 478.022 195.515C478.755 192.797 478.162 189.892 476.42 187.679L474.962 185.825C472.38 182.544 468.436 180.629 464.261 180.629Z" stroke="black" stroke-width="10" mask="url(#path-3-outside-1_15_138)"/>
<path d="M359.147 164H353.515C350.623 164 348.111 165.988 347.446 168.803C346.522 172.718 349.492 176.472 353.515 176.472H454.518C459.732 176.472 462.644 170.453 459.407 166.365C458.225 164.871 456.424 164 454.518 164H436.922H426.356H418.041H407.475H359.147Z" stroke="black" stroke-width="10" mask="url(#path-3-outside-1_15_138)"/>
<path d="M438.437 227.918H454.876C463.645 227.918 471.267 221.898 473.298 213.367C474.257 209.881 471.633 206.439 468.017 206.439H429.91C427.732 206.439 426.063 209.36 425.49 211.462C423.46 219.845 429.811 227.918 438.437 227.918Z" stroke="black" stroke-width="10" mask="url(#path-3-outside-1_15_138)"/>
<path d="M428.9 253.554H455.231C460.142 253.554 464.417 250.197 465.58 245.425C467.217 238.717 462.136 232.248 455.231 232.248H428.9C423.958 232.248 419.665 235.647 418.531 240.457C416.954 247.145 422.028 253.554 428.9 253.554Z" stroke="black" stroke-width="10" mask="url(#path-3-outside-1_15_138)"/>
<path d="M422.855 279.364H441.309C451.119 279.364 459.538 272.377 461.346 262.735C461.962 260.271 460.098 257.885 457.559 257.885H422.855C417.896 257.885 413.582 261.279 412.416 266.099C410.781 272.857 415.901 279.364 422.855 279.364Z" stroke="black" stroke-width="10" mask="url(#path-3-outside-1_15_138)"/>
<path d="M768.983 340.51H778.51H823.11C823.728 340.51 824.328 340.296 824.807 339.906C826.764 338.309 825.635 335.14 823.11 335.14H746.465C744.285 335.14 743.014 337.601 744.276 339.379C744.779 340.088 745.595 340.51 746.465 340.51H768.983Z" stroke="black" stroke-width="10" mask="url(#path-3-outside-1_15_138)"/>
<path d="M725.144 312.468L730.847 320.511C735.428 326.971 742.856 330.81 750.775 330.81H821.54C830.79 330.81 839.754 327.604 846.906 321.738L859.613 311.317C859.813 311.152 859.95 310.924 860.001 310.67C860.14 309.977 859.61 309.331 858.903 309.331H726.765C725.828 309.331 725.018 309.985 724.822 310.902C724.705 311.446 724.822 312.014 725.144 312.468Z" stroke="black" stroke-width="10" mask="url(#path-3-outside-1_15_138)"/>
<path d="M772.401 283.694H739.953C735.024 283.694 730.729 287.048 729.534 291.829C727.839 298.607 732.966 305.173 739.953 305.173H852.656C857.706 305.173 862.075 301.654 863.149 296.719C864.607 290.024 859.507 283.694 852.656 283.694H824.266C818.961 283.694 814.341 287.315 813.073 292.466L812.984 292.828C812.639 294.228 811.992 295.535 811.087 296.657C809.217 298.975 806.399 300.323 803.42 300.323H788.21H787.164C784.432 300.323 781.849 299.077 780.149 296.938L779.216 295.764C778.113 294.376 777.7 292.561 778.094 290.832C778.928 287.177 776.15 283.694 772.401 283.694Z" stroke="black" stroke-width="10" mask="url(#path-3-outside-1_15_138)"/>
<path d="M780.959 257.885H742.803C739.864 257.885 737.303 259.884 736.591 262.735C734.559 271.214 740.987 279.364 749.706 279.364H763.662C773.69 279.364 782.409 272.487 784.746 262.735C785.361 260.271 783.498 257.885 780.959 257.885Z" stroke="black" stroke-width="10" mask="url(#path-3-outside-1_15_138)"/>
<path d="M778.63 232.248H752.299C747.358 232.248 743.065 235.647 741.931 240.457C740.354 247.145 745.428 253.554 752.299 253.554H778.63C783.542 253.554 787.816 250.197 788.98 245.425C790.616 238.717 785.536 232.248 778.63 232.248Z" stroke="black" stroke-width="10" mask="url(#path-3-outside-1_15_138)"/>
<path d="M795.93 206.439H757.244C753.046 206.439 749.388 209.295 748.37 213.367C746.602 220.791 752.231 227.918 759.862 227.918H779.642C787.617 227.918 794.556 222.46 796.435 214.709L797.259 211.311C797.346 210.954 797.513 210.623 797.749 210.342C799.047 208.797 797.948 206.439 795.93 206.439Z" stroke="black" stroke-width="10" mask="url(#path-3-outside-1_15_138)"/>
<path d="M758.612 185.578L755.984 187.935C754.748 189.043 753.881 190.502 753.5 192.117C752.296 197.218 756.165 202.108 761.407 202.108H876.288C880.669 202.108 884.437 199.009 885.284 194.712C885.789 192.144 885.174 189.483 883.592 187.399L882.461 185.907C879.939 182.582 876.006 180.629 871.832 180.629H771.547C766.773 180.629 762.167 182.391 758.612 185.578Z" stroke="black" stroke-width="10" mask="url(#path-3-outside-1_15_138)"/>
<path d="M808.477 164H785.384C783.857 164 782.383 164.56 781.241 165.575C776.956 169.385 779.65 176.472 785.384 176.472H862.382C867.546 176.472 870.472 170.554 867.337 166.45C866.158 164.906 864.325 164 862.382 164H819.043H808.477Z" stroke="black" stroke-width="10" mask="url(#path-3-outside-1_15_138)"/>
<path d="M842.019 227.918H869.84C874.953 227.918 879.357 224.313 880.367 219.301C881.708 212.651 876.624 206.439 869.84 206.439H834.141C832.696 206.439 831.914 208.131 832.849 209.232C833.207 209.653 833.337 210.221 833.199 210.756L832.079 215.068C830.391 221.572 835.3 227.918 842.019 227.918Z" stroke="black" stroke-width="10" mask="url(#path-3-outside-1_15_138)"/>
<path d="M810.993 277.632H815.735C816.191 277.632 816.534 278.05 816.445 278.498C816.355 278.946 816.698 279.364 817.155 279.364H858.372C863.423 279.364 867.791 275.844 868.865 270.909C870.323 264.214 865.224 257.885 858.372 257.885H817.423C812.723 257.885 808.674 261.198 807.745 265.805L806.473 272.108C805.897 274.964 808.08 277.632 810.993 277.632Z" stroke="black" stroke-width="10" mask="url(#path-3-outside-1_15_138)"/>
<path d="M868.009 241.775H817.261C814.466 241.775 812.056 243.74 811.493 246.477C810.74 250.131 813.531 253.554 817.261 253.554H868.009C870.773 253.554 873.165 251.632 873.76 248.933C874.571 245.258 871.773 241.775 868.009 241.775Z" stroke="black" stroke-width="10" mask="url(#path-3-outside-1_15_138)"/>
<path d="M959.405 305.173H1026.22C1027.34 305.173 1028.31 304.416 1028.58 303.336C1028.96 301.806 1027.8 300.323 1026.22 300.323H1023.09C1019.93 300.323 1017.6 297.346 1018.37 294.273L1018.94 292.009C1019.99 287.785 1016.8 283.694 1012.45 283.694H981.238C976.224 283.694 971.864 287.133 970.696 292.009L970 294.916C969.24 298.087 966.405 300.323 963.144 300.323H959.405C958.262 300.323 957.274 301.122 957.034 302.24C956.711 303.75 957.861 305.173 959.405 305.173Z" stroke="black" stroke-width="10" mask="url(#path-3-outside-1_15_138)"/>
<path d="M963.817 330.81H1013.54C1018.53 330.81 1022.86 327.374 1024 322.516C1025.57 315.778 1020.46 309.331 1013.54 309.331H963.817C958.859 309.331 954.545 312.725 953.379 317.545C951.744 324.303 956.864 330.81 963.817 330.81Z" stroke="black" stroke-width="10" mask="url(#path-3-outside-1_15_138)"/>
<path d="M951.276 340.51H1017.55C1018.77 340.51 1019.84 339.682 1020.15 338.496C1020.59 336.797 1019.31 335.14 1017.55 335.14H951.276C950.021 335.14 948.934 336.01 948.658 337.234C948.278 338.913 949.555 340.51 951.276 340.51Z" stroke="black" stroke-width="10" mask="url(#path-3-outside-1_15_138)"/>
<path d="M944.571 271.742H971.705C973.7 271.742 975.164 273.617 974.68 275.553C974.196 277.489 975.66 279.364 977.655 279.364H1004.96C1014.98 279.364 1023.7 272.487 1026.04 262.735C1026.57 260.239 1024.67 257.885 1022.12 257.885H900.778C897.84 257.885 895.279 259.884 894.566 262.735C892.535 271.214 898.962 279.364 907.682 279.364H934.809C937.118 279.364 939.13 277.793 939.69 275.553C940.25 273.313 942.262 271.742 944.571 271.742Z" stroke="black" stroke-width="10" mask="url(#path-3-outside-1_15_138)"/>
<path d="M935.159 294.29L935.706 292.009C936.722 287.769 933.508 283.694 929.148 283.694H898.093C893.079 283.694 888.719 287.133 887.551 292.009L886.854 294.916C886.095 298.087 883.259 300.323 879.999 300.323H876.26C875.117 300.323 874.129 301.122 873.889 302.24C873.565 303.75 874.716 305.173 876.26 305.173H943.08C944.192 305.173 945.162 304.416 945.432 303.336C945.815 301.806 944.657 300.323 943.08 300.323H939.918C936.754 300.323 934.422 297.366 935.159 294.29Z" stroke="black" stroke-width="10" mask="url(#path-3-outside-1_15_138)"/>
<path d="M880.672 330.81H930.393C935.382 330.81 939.714 327.374 940.85 322.516C942.426 315.778 937.312 309.331 930.393 309.331H880.672C875.714 309.331 871.4 312.725 870.234 317.545C868.599 324.303 873.719 330.81 880.672 330.81Z" stroke="black" stroke-width="10" mask="url(#path-3-outside-1_15_138)"/>
<path d="M868.131 340.51H934.405C935.63 340.51 936.699 339.682 937.005 338.496C937.444 336.797 936.16 335.14 934.405 335.14H868.131C866.876 335.14 865.789 336.01 865.513 337.234C865.133 338.913 866.41 340.51 868.131 340.51Z" stroke="black" stroke-width="10" mask="url(#path-3-outside-1_15_138)"/>
<path d="M1019.75 232.248H910.275C905.333 232.248 901.04 235.647 899.906 240.457C898.329 247.145 903.403 253.554 910.275 253.554H1019.75C1024.66 253.554 1028.94 250.197 1030.1 245.425C1031.74 238.717 1026.66 232.248 1019.75 232.248Z" stroke="black" stroke-width="10" mask="url(#path-3-outside-1_15_138)"/>
<path d="M949.263 206.439H915.179C911.027 206.439 907.43 209.317 906.518 213.367C904.671 220.758 910.261 227.918 917.879 227.918H1019.4C1028.17 227.918 1035.79 221.898 1037.82 213.367C1038.7 209.848 1036.04 206.439 1032.41 206.439H998.324C994.172 206.439 990.575 209.317 989.664 213.367L989.56 213.789C987.688 221.375 980.882 226.705 973.068 226.705H965.12C958.133 226.705 953 220.151 954.673 213.367C955.553 209.848 952.891 206.439 949.263 206.439Z" stroke="black" stroke-width="10" mask="url(#path-3-outside-1_15_138)"/>
<path d="M959.387 180.629H912.198C907.24 180.629 902.926 184.024 901.76 188.843C900.125 195.601 905.245 202.108 912.198 202.108H959.387C964.345 202.108 968.659 198.713 969.825 193.894C971.46 187.136 966.34 180.629 959.387 180.629Z" stroke="black" stroke-width="10" mask="url(#path-3-outside-1_15_138)"/>
<path d="M918.297 164H912.666C909.774 164 907.261 165.988 906.597 168.803C905.672 172.718 908.643 176.472 912.666 176.472H969.139C972.031 176.472 974.543 174.483 975.208 171.669C976.132 167.753 973.162 164 969.139 164H966.452H918.297Z" stroke="black" stroke-width="10" mask="url(#path-3-outside-1_15_138)"/>
<path d="M1042.64 180.629H995.343C990.385 180.629 986.071 184.024 984.905 188.843C983.27 195.601 988.39 202.108 995.343 202.108H1042.64C1047.63 202.108 1051.96 198.672 1053.1 193.814C1054.67 187.077 1049.56 180.629 1042.64 180.629Z" stroke="black" stroke-width="10" mask="url(#path-3-outside-1_15_138)"/>
<path d="M1001.44 164H995.811C992.919 164 990.407 165.988 989.742 168.803C988.818 172.718 991.788 176.472 995.811 176.472H1052.28C1055.18 176.472 1057.69 174.483 1058.35 171.669C1059.28 167.753 1056.31 164 1052.28 164H1049.6H1001.44Z" stroke="black" stroke-width="10" mask="url(#path-3-outside-1_15_138)"/>
<path d="M121.25 309.331C118.93 309.331 117.318 311.641 118.121 313.819C119.005 316.22 122.153 316.772 123.801 314.814C125.628 312.645 124.086 309.331 121.25 309.331Z" stroke="black" stroke-width="10" mask="url(#path-3-outside-1_15_138)"/>
</g>
</svg>
