<?xml version="1.0" encoding="UTF-8"?>
<!DOCTYPE svg PUBLIC "-//W3C//DTD SVG 1.1//EN" "http://www.w3.org/Graphics/SVG/1.1/DTD/svg11.dtd">
<!-- Creator: CorelDRAW X7 -->
<svg xmlns="http://www.w3.org/2000/svg" xml:space="preserve" width="156.414mm" height="97.4539mm" version="1.1" style="shape-rendering:geometricPrecision; text-rendering:geometricPrecision; image-rendering:optimizeQuality; fill-rule:evenodd; clip-rule:evenodd"
viewBox="0 0 6963 4338"
 xmlns:xlink="http://www.w3.org/1999/xlink">
 <defs>
  <style type="text/css">
   <![CDATA[
    .fil2 {fill:#E5097F}
    .fil1 {fill:#7E71B1}
    .fil0 {fill:#00A0E3}
   ]]>
  </style>
 </defs>
 <g id="Слой_x0020_1">
  <metadata id="CorelCorpID_0Corel-Layer"/>
  <g id="_2494520751280">
   <path class="fil0" d="M6322 2226l0 162c0,159 -130,290 -289,290l-1124 0 0 241c0,1 -1,2 -1,4l1399 0 0 127 -1422 0c-16,44 -40,86 -69,125l1413 0c35,0 63,29 63,64l0 0c0,35 -28,63 -63,63l-1541 0c-136,103 -315,169 -487,169 -993,0 314,0 -1213,0l-746 0 -48 0c-156,0 -211,-65 -230,-169l-1592 0c-35,0 -64,-28 -64,-63l0 0c0,-35 29,-64 64,-64l1582 0c0,-39 1,-81 1,-125l-1682 0 0 -127 1681 0 0 -245 -1406 0c-160,0 -290,-131 -290,-290l0 -106 0 -56 156 0c57,0 105,-33 126,-84l64 0c5,12 12,22 20,33 26,33 63,51 106,51l414 0c10,0 18,-1 27,-2 9,1 18,2 27,2l415 0c10,0 20,-1 29,-3 10,2 20,3 30,3l649 0c32,0 61,-10 86,-31l23 -19c27,33 63,50 105,50l426 0c46,0 86,-22 111,-57 25,36 65,57 110,57l157 0 171 0c11,0 22,-1 32,-4 10,3 21,4 33,4l418 0c44,0 83,-20 108,-53 26,34 64,53 108,53l456 0c33,0 61,-10 86,-31l36 -29c2,3 4,6 6,9 27,33 64,51 107,51l414 0c11,0 22,-1 33,-4 10,3 21,4 33,4l414 0c57,0 105,-33 125,-84l37 0c5,12 11,22 19,33 27,33 64,51 107,51l240 0zm-4295 447c77,-80 155,-160 232,-240 32,-36 91,-26 103,2 17,62 35,124 52,185 8,23 22,26 42,10 227,-91 439,-144 624,-133 66,3 74,41 75,67 1,25 -15,83 -62,84 -141,-3 -282,12 -422,57 233,28 384,91 581,200 13,-67 29,-134 49,-200 20,-65 45,-130 74,-193 24,-49 95,-47 104,10 15,65 31,129 48,193 52,-48 125,-88 261,-98 9,-1 9,-3 6,-10 -42,-55 -79,-115 -112,-178 -22,-36 -3,-72 12,-80 16,-8 49,-16 80,28 54,73 109,146 164,218 2,5 4,9 6,13 72,8 143,16 214,23 13,-136 141,-182 246,-136 47,24 86,87 126,163 13,29 0,58 -13,68 -13,9 -46,16 -64,-8 -31,-45 -63,-99 -90,-113 -30,-17 -61,-16 -93,-3 0,31 31,116 89,121 150,13 244,67 329,116 48,32 104,123 97,242 -23,93 -76,164 -201,187 -178,12 -304,-60 -334,-225 -10,-49 -5,-91 23,-124 39,-40 87,-44 123,-10 22,29 18,61 -2,96 7,81 64,117 144,114 117,-7 148,-86 97,-150 -45,-55 -177,-100 -338,-141 -34,-11 -60,-33 -82,-64 0,2 1,3 1,4 -16,8 -35,9 -58,2 -37,-8 -74,-16 -110,-24 -17,-3 -7,9 0,17 50,74 90,155 120,244 37,117 -25,156 -89,136 -82,-39 -168,-76 -252,-115 -84,-38 -167,-77 -244,-119 23,75 48,150 74,224 22,63 -4,85 -19,96 -15,10 -59,8 -72,-33 -31,-74 -59,-152 -84,-233 -25,-81 -48,-165 -68,-251 -12,45 -21,91 -27,137 -6,46 -9,93 -10,140 31,49 -3,91 -25,105 -23,16 -56,9 -101,-19 -99,-62 -207,-114 -322,-155 -116,-42 -240,-73 -371,-93 -19,-5 -19,3 -5,21 37,63 70,126 100,191 30,64 57,129 82,195 23,98 -71,154 -169,99 -117,-73 -212,-139 -287,-196 -75,-58 -130,-107 -166,-147 -56,-63 -36,-117 30,-167 67,-51 132,-96 195,-133 2,-2 2,-3 0,-8 -13,-31 -30,-62 -56,-92 -3,-3 -4,-5 -7,-3 -65,58 -130,116 -195,174 -26,25 -55,33 -77,13 -23,-24 -12,-58 24,-101zm1244 -349c49,8 98,18 142,34 29,12 23,44 15,59 -8,14 -21,37 -61,31 -53,-8 -100,-25 -143,-48 -21,-17 -17,-44 -10,-56 8,-13 27,-27 57,-20zm-863 479c46,80 87,156 121,225 35,68 62,129 80,180 -91,-51 -169,-101 -236,-149 -67,-48 -122,-95 -166,-140 49,-52 118,-89 201,-116zm1225 -24c9,24 137,88 387,192 -38,-78 -82,-155 -144,-233 -121,2 -214,12 -243,41z"/>
   <path class="fil1" d="M374 3392l1264 0c166,-10 210,127 196,127l-1460 0c-35,0 -64,-28 -64,-63l0 0c0,-35 29,-64 64,-64z"/>
   <path class="fil1" d="M6291 3428l-1264 0c-166,-10 -210,127 -196,127l1460 0c35,0 64,-28 64,-63l0 0c0,-35 -29,-64 -64,-64z"/>
   <path class="fil1" d="M2837 3736l-584 0 -681 0c-166,10 -210,-128 -196,-128l877 0 584 0 864 0 362 0 1099 0c13,0 -30,138 -196,128l-903 0 -362 0 -864 0z"/>
   <path class="fil2" d="M342 3608l375 0c18,0 32,15 32,32l0 0c0,18 -14,32 -32,32l-375 0c-18,0 -32,-14 -32,-32l0 0c0,-17 14,-32 32,-32z"/>
   <path class="fil2" d="M5948 3640l375 0c18,0 32,15 32,32l0 0c0,18 -14,32 -32,32l-375 0c-18,0 -32,-14 -32,-32l0 0c0,-17 14,-32 32,-32z"/>
   <path class="fil2" d="M815 3628l360 0c166,-10 210,127 196,127l-556 0c-35,0 -63,-28 -63,-63l0 0c0,-35 28,-64 63,-64z"/>
   <path class="fil2" d="M965 3898l1043 0c20,0 36,16 36,36l0 0c0,20 -16,37 -36,37l-1043 0c-20,0 -36,-17 -36,-37l0 0c0,-20 16,-36 36,-36z"/>
   <path class="fil2" d="M4643 3909l1083 0c20,0 37,17 37,37l0 0c0,20 -17,36 -37,36l-1083 0c-20,0 -36,-16 -36,-36l0 0c0,-20 16,-37 36,-37z"/>
   <path class="fil2" d="M364 3791l339 0c166,-5 209,64 196,64l-535 0c-35,0 -49,-14 -49,-32l0 0c0,-17 14,-32 49,-32z"/>
   <path class="fil2" d="M6324 3823l-339 0c-165,-5 -209,64 -195,64l534 0c35,0 50,-14 50,-32l0 0c0,-17 -15,-32 -50,-32z"/>
   <path class="fil2" d="M531 4100l97 0c14,0 25,11 25,25l0 0c0,13 -11,24 -25,24l-97 0c-14,0 -25,-11 -25,-24l0 0c0,-14 11,-25 25,-25z"/>
   <path class="fil2" d="M5867 4100l97 0c14,0 25,11 25,25l0 0c0,13 -11,24 -25,24l-97 0c-14,0 -25,-11 -25,-24l0 0c0,-14 11,-25 25,-25z"/>
   <path class="fil2" d="M1418 4076l3800 0c25,0 44,19 44,44l0 0c0,24 -19,44 -44,44l-3800 0c-25,0 -44,-20 -44,-44l0 0c0,-25 19,-44 44,-44z"/>
   <path class="fil2" d="M1616 4250l3412 0c24,0 44,20 44,44l0 0c0,25 -20,44 -44,44l-3412 0c-25,0 -44,-19 -44,-44l0 0c0,-24 19,-44 44,-44z"/>
   <polygon class="fil0" points="1837,3855 4791,3855 4561,3982 2065,3982 "/>
   <path class="fil2" d="M5745 3628l-360 0c-166,-10 -210,127 -196,127l556 0c35,0 63,-28 63,-63l0 0c0,-35 -28,-64 -63,-64z"/>
   <path class="fil2" d="M5159 937c-47,-76 -99,-148 -158,-216l-3312 0c-58,68 -111,140 -157,216l315 0c13,0 25,1 37,5 12,-4 24,-5 36,-5l629 0c42,0 79,17 105,51l13 15c24,-40 67,-66 117,-66l339 0c45,0 86,21 110,56 25,-35 65,-56 111,-56l400 0c14,0 27,2 40,5 12,-3 25,-5 39,-5l400 0c41,0 76,16 102,46l14 -12c25,-23 55,-34 89,-34l476 0c44,0 81,18 108,53l16 20c22,-44 68,-73 120,-73l11 0zm-208 -273c-374,-404 -955,-664 -1606,-664 -651,0 -1231,260 -1606,664l3212 0z"/>
   <path class="fil0" d="M6552 1859l-7 28 -414 0 6 -28 65 0 23 -96 278 0 -23 96 72 0zm-13 52l-30 124 -414 0 30 -124 414 0zm-36 149l-7 31 -414 0 7 -31 414 0zm-272 -322l23 -96 7 -28 278 0 -7 28 -23 96 -278 0zm36 -149l29 -123 279 0 -30 123 -278 0zm35 -148l20 -84 10 -40 278 0 -9 40 -20 84 -279 0zm-31 -124l-10 40 -233 0 10 -40 233 0zm-227 -25l30 -124 866 0 -30 124 -866 0zm36 -148l17 -72 116 0 117 0 61 0 278 0 61 0 104 0 129 0 -17 72 -866 0zm824 173l-9 40 -233 0 9 -40 233 0zm-5704 542l-7 28 -414 0 7 -28 64 0 23 -96 279 0 -23 96 71 0zm-12 52l-30 124 -415 0 30 -124 415 0zm-36 149l-8 31 -414 0 7 -31 415 0zm-273 -322l23 -96 7 -28 278 0 -6 28 -23 96 -279 0zm17 -124l-103 124 -276 0 -45 -124 424 0zm-124 149l-103 124 -98 0 -45 -124 246 0zm-123 148l-48 57 -21 -57 69 0zm-192 -297l-6 28 -23 96 -279 0 23 -96 7 -28 278 0zm-35 149l-23 96 71 0 -7 28 -414 0 7 -28 64 0 23 -96 279 0zm36 148l-30 124 -415 0 30 -124 415 0zm-36 149l-8 31 -414 0 7 -31 415 0zm-237 -471l30 -123 1008 0 -30 123 -1008 0zm36 -148l20 -84 9 -40 413 0 45 124 -487 0zm-26 -149l30 -124 384 0 45 124 -459 0zm36 -148l17 -72 61 0 265 0 26 72 -369 0zm499 297l104 -124 425 0 -10 40 -20 84 -499 0zm125 -149l103 -124 397 0 -29 124 -471 0zm124 -148l60 -72 279 0 61 0 -18 72 -382 0zm689 715l-6 28 -415 0 7 -28 65 0 23 -96 278 0 -23 96 71 0zm-12 52l-30 124 -414 0 29 -124 415 0zm-36 149l-7 31 -415 0 8 -31 414 0zm-272 -322l23 -96 6 -28 279 0 -7 28 -23 96 -278 0zm35 -149l30 -123 279 0 -30 123 -279 0zm36 -148l20 -84 10 -40 278 0 -9 40 -21 84 -278 0zm-25 -149l30 -124 400 0 -30 124 -400 0zm36 -148l17 -72 61 0 278 0 61 0 -17 72 -400 0zm657 947l-16 0 -399 0 7 -31 679 0 -37 31 -201 0 -33 0zm-402 -56l30 -124 806 0 -3 16 -130 108 -703 0zm36 -148l7 -28 64 0 23 -96 279 0 -13 54 -10 42 43 0 85 0c23,0 47,-19 52,-42l13 -54 285 0 -23 124 -805 0zm100 -149l23 -96 7 -28 279 0 -30 124 -279 0zm36 -149l30 -123 278 0 -29 123 -279 0zm36 -148l20 -84 10 -40 278 0 -30 124 -278 0zm-25 -149l29 -124 729 0 48 61 -17 63 -789 0zm35 -148l17 -72 61 0 279 0 61 0 48 0 61 0 119 0 57 72 -703 0zm748 173l-11 40 -20 84 -279 0 23 -95c3,-11 1,-21 -5,-29l292 0zm-37 149l-30 123 -278 0 29 -123 279 0zm-36 148l-7 28 -18 96 -283 0 30 -124 278 0zm988 245l-7 28 -464 0 -48 -124 470 0 -23 96 72 0zm-13 52l-30 124 -365 0 -45 -103 -8 -21 448 0zm-36 149l-7 31 -170 0 -158 -1 -13 -30 348 0zm-480 -322l-42 -109 -3 -13 -6 26 -23 96 -278 0 23 -96 6 -28 839 0 -7 28 -23 96 -486 0zm-80 25l-23 96 71 0 -6 28 -415 0 7 -28 65 0 23 -96 278 0zm36 148l-1 4 -21 120 -422 0 30 -124 414 0zm-26 149l-6 31 -108 0 -318 0 8 -31 424 0zm-247 -471l30 -123 520 0 25 65 15 -65 279 0 -30 123 -839 0zm36 -148l20 -84 10 -40 429 0 46 124 -505 0zm-25 -149l30 -124 399 0 0 2 46 122 -475 0zm36 -148l17 -72 61 0 278 0 27 72 -383 0zm549 297l20 -84 10 -40 278 0 -9 40 -20 84 -279 0zm-25 -149l30 -124 400 0 -30 124 -400 0zm36 -148l17 -72 61 0 278 0 61 0 -17 72 -400 0zm718 715l-6 28 -415 0 6 -28 65 0 23 -96 278 0 -23 96 72 0zm-12 52l-28 124 -417 0 30 -124 415 0zm-33 149l-7 31 -284 0 -134 0 7 -31 418 0zm-276 -322l23 -96 7 -28 278 0 -7 28 -23 96 -278 0zm36 -149l29 -123 279 0 -30 123 -278 0zm35 -148l20 -84 10 -40 278 0 -9 40 -20 84 -279 0zm-25 -149l30 -124 400 0 -30 124 -400 0zm36 -148l17 -72 61 0 278 0 61 0 -17 72 -400 0zm596 947l-55 0 -138 0 -22 -31 516 0 -38 31 -263 0zm-233 -56l-78 -110 3 -14 780 0 -2 10 -139 114 -564 0zm-69 -148l31 -124 278 0 -13 57 31 39 31 0 115 0 25 -31 16 -65 293 0 -27 124 -780 0zm37 -149l23 -96 7 -28 278 0 -7 28 -23 96 -278 0zm36 -149l29 -123 279 0 -30 123 -278 0zm35 -148l20 -84 10 -40 294 0 -21 25 -24 99 -279 0zm36 -149l17 -72 58 -52 660 0 44 58 -13 66 -766 0zm103 -148l81 -72 147 0 61 0 268 0 55 72 -612 0zm658 173l-25 124 -288 0 27 -104 -17 -20 303 0zm-385 421l2 -10 -65 0 23 -114 360 0 -27 124 -293 0zm-36 -149l14 -68 363 0 -15 68 -362 0zm1266 270l-7 28 -414 0 6 -28 65 0 23 -96 279 0 -24 96 72 0zm-13 52l-29 124 -415 0 30 -124 414 0zm-35 149l-8 31 -414 0 7 -31 415 0zm-273 -322l11 -44 -202 0 -11 44 -278 0 23 -96 7 -28 758 0 -6 28 -23 96 -279 0zm-208 25l-23 96 72 0 -7 28 -414 0 6 -28 65 0 23 -96 278 0zm36 148l-29 124 -415 0 30 -124 414 0zm-35 149l-8 31 -414 0 7 -31 415 0zm-237 -471l29 -123 759 0 -30 123 -758 0zm35 -148l21 -84 9 -40 279 0 -10 40 -19 77 202 0 19 -77 9 -40 279 0 -10 40 -20 84 -759 0zm-25 -149l30 -124 400 0 -30 124 -400 0zm36 -148l17 -72 61 0 278 0 61 0 -17 72 -400 0zm444 148l30 -124 400 0 -29 124 -401 0zm36 -148l17 -72 61 0 278 0 61 0 -17 72 -400 0z"/>
  </g>
 </g>
</svg>
