<svg xmlns="http://www.w3.org/2000/svg" version="1.1" xmlns:xlink="http://www.w3.org/1999/xlink" xmlns:svgjs="http://svgjs.com/svgjs" id="Pattern1563SvgRootPreview" width="100%" height="100%"><defs><pattern x="0" y="0" width="1" height="1" patternUnits="userSpaceOnUse" id="Pattern1563Layer1" patternTransform="matrix(0.6,0,0,0.6,0,0)"><g id="PatternRootContent1"><g id="Pattern1563Layer1background"><rect width="1" height="1" id="Pattern1563Background1" class="color_1 fill_color_1" fill="#ffb594"></rect></g></g></pattern><pattern x="0" y="0" width="60" height="60" patternUnits="userSpaceOnUse" id="Pattern1563Layer2" patternTransform="matrix(0.6,0,0,0.6,0,0)"><g id="PatternRootContent2"><g id="Pattern1563Layer2Element1"><use xlink:href="#Pattern1563Element1" x="40" y="-35" transform="translate(56, -19) scale(1) translate(-56, 19) rotate(90, 60, -15)"></use><use xlink:href="#Pattern1563Element1" x="-20" y="-35" transform="translate(-4, -19) scale(1) translate(4, 19) rotate(90, 0, -15)"></use><use xlink:href="#Pattern1563Element1" x="10" y="-5" transform="translate(26, 11) scale(1) translate(-26, -11) rotate(90, 30, 15)"></use><use xlink:href="#Pattern1563Element1" x="-50" y="-5" transform="translate(-34, 11) scale(1) translate(34, -11) rotate(90, -30, 15)"></use><use xlink:href="#Pattern1563Element1" x="70" y="-5" transform="translate(86, 11) scale(1) translate(-86, -11) rotate(90, 90, 15)"></use><use xlink:href="#Pattern1563Element1" x="40" y="25" transform="translate(56, 41) scale(1) translate(-56, -41) rotate(90, 60, 45)"></use><use xlink:href="#Pattern1563Element1" x="-20" y="25" transform="translate(-4, 41) scale(1) translate(4, -41) rotate(90, 0, 45)"></use><use xlink:href="#Pattern1563Element1" x="10" y="55" transform="translate(26, 71) scale(1) translate(-26, -71) rotate(90, 30, 75)"></use><use xlink:href="#Pattern1563Element1" x="10" y="55" transform="translate(26, 71) scale(1) translate(-26, -71) rotate(90, 30, 75)"></use></g></g></pattern><symbol id="Pattern1563Element1"><g class="color_2 fill_color_2" fill="#cf716f"><rect x="26.787" y="13.091" width="4.607" height="4.606"></rect> <rect x="26.787" y="22.303" width="4.607" height="4.606"></rect> <rect x="22.182" y="26.909" width="4.605" height="4.606"></rect> <rect x="22.182" y="8.485" width="4.605" height="4.606"></rect> <rect x="31.393" y="17.697" width="4.607" height="4.607"></rect> <rect x="21.803" y="17.697" width="4.607" height="4.607"></rect> <rect x="15.87" y="17.697" width="4.607" height="4.607"></rect> <rect x="9.934" y="17.697" width="4.607" height="4.607"></rect> <rect x="4" y="17.697" width="4.607" height="4.607"></rect></g></symbol></defs><rect width="100%" height="100%" id="Pattern1563RctLayer1" fill="url(#Pattern1563Layer1)"></rect><rect width="100%" height="100%" id="Pattern1563RctLayer2" fill="url(#Pattern1563Layer2)"></rect></svg>